<?xml version="1.0" encoding="utf-8"?>
<!-- Generator: Adobe Illustrator 15.0.0, SVG Export Plug-In . SVG Version: 6.00 Build 0)  -->
<!DOCTYPE svg PUBLIC "-//W3C//DTD SVG 1.1//EN" "http://www.w3.org/Graphics/SVG/1.1/DTD/svg11.dtd">
<svg version="1.1" id="Layer_1" xmlns="http://www.w3.org/2000/svg" xmlns:xlink="http://www.w3.org/1999/xlink" x="0px" y="0px"
	 width="1000px" height="1000px" viewBox="0 0 1000 1000" enable-background="new 0 0 1000 1000" xml:space="preserve">
<g>
	<g>
		<path fill="#FFFFFF" d="M790.001,210.92h-89.759v4.879h18.054c10.399,0,17.232,1.304,20.487,3.902
			c3.242,2.608,4.879,7.157,4.879,13.66c0,2.925-0.329,6.827-0.977,11.706c-0.66,4.879-1.792,11.548-3.417,19.999l-35.124,160.49
			c-2.602,12.362-4.96,23.011-7.07,31.95c-2.122,8.949-3.988,17.316-5.606,25.121c-1.637,7.807-3.417,16.265-5.371,25.367
			c-1.631-8.452-3.41-16.99-5.364-25.609c-1.948-8.613-4.07-17.562-6.342-26.829c-2.277-9.27-4.717-18.941-7.318-29.026
			l-54.635-214.145h-18.533l-29.46,131.312c-9.031-21.001-21.302-37.347-36.837-49.002c-14.36-10.766-31.555-17.271-51.57-19.55
			l-1.645-8.128c-0.33-1.951-0.902-5.196-1.711-9.755c-0.815-4.549-1.543-9.344-2.194-14.392c-0.656-5.038-0.974-8.855-0.974-11.463
			c0-5.196,1.783-9.098,5.364-11.706c3.576-2.598,10.244-3.902,20.002-3.902H506.1v-4.879H389.513v4.879h7.804
			c5.526,0,10.001,0.573,13.417,1.708c3.41,1.142,6.254,3.413,8.535,6.827c2.269,3.417,4.061,8.707,5.365,15.854l7.769,36.554
			c-16.072,3.193-30.199,9.407-42.355,18.684c-18.539,14.149-32.361,34.558-41.466,61.222
			c-9.105,26.667-13.657,58.705-13.657,96.097c0,33.497,3.902,63.17,11.709,89.024c7.804,25.853,19.51,46.511,35.119,61.95
			c15.611,15.45,35.286,24.468,59.028,27.075c1.294,21.134,4.708,38.696,10.244,52.684c1.326,3.354,2.738,6.529,4.233,9.537
			c-2.249-0.748-4.828-1.133-7.755-1.133c-3.696,0-6.989,0.522-9.882,1.571c-2.897,1.052-5.144,2.521-6.737,4.406
			c-1.596,1.889-2.393,4.136-2.393,6.736c0,2.437,0.778,4.22,2.331,5.353s3.796,1.699,6.737,1.699c0-6.968,0.691-11.79,2.076-14.479
			c1.385-2.686,3.672-4.03,6.861-4.03c2.097,0,3.777,0.548,5.035,1.637c1.263,1.093,2.184,2.897,2.772,5.415
			c0.585,2.517,0.88,6.002,0.88,10.448v12.089l-8.184,0.377c-7.636,0.336-13.306,2.035-16.996,5.1
			c-3.696,3.065-5.539,7.91-5.539,14.541c0,6.127,1.425,10.828,4.279,14.103c2.853,3.27,6.506,4.91,10.956,4.91
			c2.514,0,4.782-0.505,6.796-1.513c2.016-1.008,3.756-2.518,5.228-4.534c1.465-2.013,2.62-4.446,3.46-7.3h0.252v12.086h17.124
			v-1.26h-0.252c-1.596,0-2.834-0.23-3.715-0.691c-0.88-0.46-1.509-1.385-1.889-2.77c-0.376-1.385-0.566-3.463-0.566-6.232v-35.884
			c0-1.314-0.059-2.541-0.145-3.728c1.913,2.339,3.915,4.497,6.007,6.469c8.455,7.966,17.724,13.66,27.806,17.074
			c10.074,3.416,20.486,5.122,31.221,5.122h5.365l4.654,21.899h7.556l16.74-74.786l18.384,74.786h5.794l17.625-80.828
			c0.504-2.35,1.07-4.07,1.698-5.163c0.629-1.089,1.45-1.805,2.459-2.141c1.002-0.333,2.303-0.504,3.901-0.504h2.646v-1.257h-23.17
			v1.257h4.661c2.683,0,4.444,0.336,5.284,1.008c0.84,0.673,1.264,1.849,1.264,3.526c0,0.756-0.088,1.761-0.256,3.021
			c-0.168,1.261-0.46,2.981-0.877,5.163l-9.067,41.422c-0.673,3.189-1.282,5.938-1.824,8.246c-0.547,2.309-1.032,4.469-1.449,6.484
			c-0.424,2.014-0.884,4.198-1.388,6.544c-0.418-2.181-0.878-4.384-1.382-6.609c-0.504-2.222-1.052-4.53-1.637-6.923
			c-0.592-2.393-1.22-4.889-1.893-7.49l-14.096-55.272h-4.785l-13.219,58.923c-0.84,3.609-1.637,7.135-2.396,10.576
			c-0.753,3.441-1.55,7.008-2.39,10.701c-0.337-2.35-0.754-4.973-1.258-7.869c-0.278-1.6-0.557-3.167-0.835-4.714h3.891v-4.876
			h-4.785c-0.42-2.215-0.81-4.13-1.17-5.707l-8.688-42.932c-0.081-0.504-0.229-1.341-0.436-2.521
			c-0.211-1.173-0.404-2.412-0.566-3.712c-0.174-1.301-0.255-2.287-0.255-2.96c0-1.341,0.461-2.349,1.388-3.021
			c0.921-0.672,2.639-1.008,5.159-1.008h2.894v-1.257h-30.09v1.257h2.017c1.426,0,2.583,0.149,3.46,0.442
			c0.884,0.295,1.618,0.88,2.203,1.761c0.592,0.884,1.052,2.247,1.388,4.092l11.636,54.749c-3.544-0.607-7.044-1.548-10.496-2.844
			c-6.51-2.439-12.44-7.24-17.806-14.391c-5.365-7.157-9.924-17.644-13.658-31.462c-3.743-13.829-6.267-32.119-7.562-54.881
			c30.892-6.5,54.795-25.12,71.71-55.852c16.902-30.733,25.366-70.809,25.366-120.247c0-39.023-4.637-71.783-13.903-98.291
			c-0.278-0.794-0.573-1.564-0.859-2.347l18.615-83.136l71.22,289.758h22.441l68.288-313.173c1.954-9.099,4.151-15.77,6.591-19.999
			c2.439-4.223,5.607-6.989,9.509-8.292c3.902-1.294,8.943-1.951,15.123-1.951h10.243V210.92z M455.182,738.089
			c0,3.861-0.504,7.365-1.512,10.511c-1.005,3.149-2.39,5.648-4.151,7.493c-1.764,1.846-3.821,2.77-6.174,2.77
			c-1.761,0-3.229-0.566-4.406-1.699c-1.176-1.132-2.054-2.896-2.642-5.29c-0.588-2.39-0.88-5.433-0.88-9.126
			c0-6.043,0.983-10.533,2.956-13.471s5.645-4.574,11.019-4.91l5.791-0.38V738.089z M533.221,532.259
			c-3.1,22.117-7.804,40.243-14.146,54.389c-6.342,14.148-14.563,24.561-24.637,31.219c-10.085,6.672-21.95,10.001-35.61,10.001
			s-25.45-3.491-35.367-10.486c-9.923-6.988-18.132-17.562-24.632-31.707c-6.51-14.146-11.305-32.197-14.392-54.146
			c-3.096-21.953-4.633-48.05-4.633-78.296c0-30.889,1.462-57.316,4.388-79.266c2.928-21.953,7.639-39.917,14.146-53.903
			c6.503-13.978,14.796-24.305,24.881-30.977c3.331-2.201,6.88-4.031,10.638-5.506l58.584,275.636h29.266l15.247-68.096
			C536.193,506.159,534.95,519.874,533.221,532.259z M537.803,461.972c-1.5,6.637-2.964,13.2-4.389,19.682
			c-2.926,13.336-6.019,27.155-9.267,41.462c-1.301-9.099-2.926-19.268-4.88-30.488c-1.947-11.221-3.901-22.111-5.85-32.682
			c-1.954-10.564-3.746-19.429-5.371-26.586l-30.824-152.355c7.108,1.642,13.496,4.336,19.167,8.08
			c10.077,6.672,18.124,16.999,24.147,30.977c6.012,13.987,10.399,31.95,13.169,53.903c2.757,21.95,4.145,48.377,4.145,79.266
			C537.851,456.188,537.832,459.094,537.803,461.972z M143.079,674.508c-4.702-3.525-10.576-5.286-17.627-5.286
			c-7.132,0-13.094,1.823-17.876,5.477c-4.783,3.649-8.355,8.918-10.701,15.798c-2.352,6.886-3.525,15.153-3.525,24.803
			c0,8.647,1.005,16.306,3.021,22.979c2.016,6.672,5.035,12.002,9.064,15.988c4.029,3.989,9.107,6.313,15.234,6.988
			c0.333,5.455,1.217,9.985,2.642,13.595c1.428,3.61,3.23,6.441,5.414,8.502c2.185,2.054,4.574,3.525,7.176,4.405
			c2.601,0.881,5.29,1.323,8.059,1.323h5.162v-1.261h-1.637c-1.764,0-3.482-0.314-5.162-0.942c-1.68-0.632-3.211-1.87-4.593-3.716
			c-1.388-1.849-2.564-4.556-3.529-8.121c-0.964-3.569-1.615-8.29-1.948-14.164c7.972-1.678,14.139-6.482,18.505-14.414
			c4.366-7.935,6.547-18.277,6.547-31.035c0-10.072-1.195-18.527-3.587-25.369C151.325,683.218,147.78,678.034,143.079,674.508z
			 M144.526,735.823c-0.797,5.707-2.013,10.387-3.65,14.037c-1.637,3.649-3.756,6.339-6.357,8.06
			c-2.604,1.721-5.667,2.579-9.192,2.579s-6.569-0.902-9.129-2.707c-2.558-1.805-4.68-4.534-6.354-8.184
			c-1.681-3.65-2.919-8.309-3.715-13.975c-0.8-5.666-1.195-12.403-1.195-20.207c0-7.976,0.373-14.793,1.132-20.459
			c0.753-5.667,1.97-10.303,3.65-13.913c1.677-3.609,3.818-6.272,6.419-7.993c2.602-1.721,5.707-2.583,9.316-2.583
			c3.778,0,6.967,0.862,9.571,2.583c2.599,1.721,4.677,4.384,6.23,7.993c1.553,3.61,2.688,8.246,3.401,13.913
			c0.712,5.666,1.067,12.483,1.067,20.459C145.721,723.317,145.322,730.113,144.526,735.823z M226.611,758.61
			c-1.133-0.42-1.889-1.301-2.265-2.645c-0.38-1.342-0.566-3.354-0.566-6.043v-56.906h-18.633v1.257h0.249
			c2.265,0,3.946,0.233,5.038,0.694c1.089,0.46,1.783,1.385,2.075,2.769c0.292,1.385,0.442,3.548,0.442,6.485v31.475
			c0,4.617-0.442,8.647-1.319,12.085c-0.884,3.445-2.206,6.108-3.971,7.997c-1.761,1.89-3.983,2.832-6.671,2.832
			c-2.184,0-3.986-0.606-5.414-1.826c-1.425-1.214-2.452-3.146-3.083-5.791c-0.629-2.646-0.943-6.062-0.943-10.26v-47.717h-18.888
			v1.257h0.38c2.181,0,3.818,0.212,4.91,0.632c1.089,0.42,1.823,1.278,2.203,2.579c0.379,1.305,0.566,3.255,0.566,5.856v33.992
			c0,8.647,1.425,14.877,4.282,18.698c2.85,3.817,6.923,5.729,12.21,5.729c2.097,0,3.989-0.318,5.669-0.946
			c1.674-0.629,3.165-1.509,4.468-2.646c1.301-1.132,2.409-2.558,3.336-4.278c0.921-1.721,1.637-3.631,2.141-5.729h0.249v12.338
			h19.012v-1.26h-0.376C229.443,759.239,227.744,759.03,226.611,758.61z M267.53,758.61c-1.133-0.42-1.911-1.301-2.328-2.645
			c-0.423-1.342-0.631-3.354-0.631-6.043v-56.906h-19.389v1.257h1.257c1.932,0,3.423,0.233,4.471,0.694
			c1.049,0.46,1.783,1.344,2.203,2.645c0.42,1.301,0.632,3.292,0.632,5.98v46.205c0,2.686-0.233,4.721-0.694,6.105
			c-0.464,1.385-1.242,2.287-2.331,2.707c-1.089,0.42-2.645,0.629-4.658,0.629h-1.637v1.26h29.084v-1.26h-1.388
			C270.193,759.239,268.663,759.03,267.53,758.61z M258.655,679.418c1.509,0,2.832-0.522,3.964-1.574
			c1.132-1.049,1.699-2.788,1.699-5.225c0-2.517-0.566-4.281-1.699-5.286c-1.133-1.009-2.455-1.513-3.964-1.513
			c-1.68,0-3.068,0.504-4.157,1.513c-1.092,1.005-1.637,2.77-1.637,5.286c0,2.437,0.544,4.176,1.637,5.225
			C255.587,678.896,256.975,679.418,258.655,679.418z M331.611,758.548c-0.88-0.46-1.512-1.385-1.889-2.77s-0.566-3.463-0.566-6.232
			v-35.884c0-7.972-1.571-13.595-4.72-16.868s-7.786-4.91-13.913-4.91c-3.693,0-6.985,0.522-9.886,1.571
			c-2.894,1.052-5.14,2.521-6.733,4.406c-1.593,1.889-2.39,4.136-2.39,6.736c0,2.437,0.771,4.22,2.327,5.353
			c1.55,1.133,3.796,1.699,6.734,1.699c0-6.968,0.694-11.79,2.079-14.479c1.385-2.686,3.672-4.03,6.861-4.03
			c2.097,0,3.777,0.548,5.038,1.637c1.257,1.093,2.181,2.897,2.77,5.415c0.585,2.517,0.88,6.002,0.88,10.448v12.089l-8.184,0.377
			c-7.639,0.336-13.302,2.035-16.996,5.1c-3.693,3.065-5.542,7.91-5.542,14.541c0,6.127,1.428,10.828,4.281,14.103
			c2.854,3.27,6.503,4.91,10.953,4.91c2.521,0,4.786-0.505,6.799-1.513c2.013-1.008,3.755-2.518,5.224-4.534
			c1.469-2.013,2.624-4.446,3.463-7.3h0.252v12.086h17.121v-1.26h-0.249C333.73,759.239,332.495,759.009,331.611,758.548z
			 M318.203,738.089c0,3.861-0.504,7.365-1.509,10.511c-1.008,3.149-2.396,5.648-4.157,7.493c-1.761,1.846-3.821,2.77-6.167,2.77
			c-1.764,0-3.233-0.566-4.406-1.699c-1.176-1.132-2.06-2.896-2.645-5.29c-0.588-2.39-0.884-5.433-0.884-9.126
			c0-6.043,0.99-10.533,2.962-13.471c1.97-2.938,5.642-4.574,11.016-4.91l5.791-0.38V738.089z M404.129,758.548
			c-1.049-0.46-1.765-1.341-2.138-2.645c-0.38-1.301-0.57-3.252-0.57-5.854v-34.875c0-8.141-1.322-14.059-3.967-17.752
			c-2.642-3.694-6.817-5.539-12.524-5.539c-2.854,0-5.312,0.545-7.365,1.637c-2.06,1.089-3.734,2.602-5.035,4.53
			c-1.304,1.933-2.331,4.198-3.087,6.799h-0.252v-11.833h-19.009v1.257h0.629c2.181,0,3.818,0.212,4.91,0.632
			c1.089,0.42,1.823,1.238,2.203,2.455c0.379,1.217,0.566,3.127,0.566,5.729v46.961c0,2.602-0.187,4.574-0.566,5.916
			c-0.38,1.344-1.133,2.225-2.266,2.645c-1.132,0.42-2.832,0.629-5.1,0.629h-0.756v1.26h27.7v-1.26h-0.628
			c-2.104,0-3.697-0.209-4.786-0.629c-1.092-0.42-1.827-1.279-2.203-2.579c-0.379-1.301-0.566-3.212-0.566-5.729v-32.734
			c0-5.371,0.523-9.715,1.575-13.031c1.045-3.314,2.471-5.747,4.278-7.304c1.805-1.553,3.84-2.327,6.108-2.327
			c3.438,0,5.853,1.553,7.238,4.658s2.079,7.888,2.079,14.351v46.585h18.632v-1.26h-0.504
			C406.708,759.239,405.177,759.009,404.129,758.548z M666.251,758.548c-0.884-0.46-1.513-1.385-1.886-2.77
			c-0.38-1.385-0.566-3.463-0.566-6.232v-35.884c0-7.972-1.575-13.595-4.724-16.868c-3.149-3.273-7.785-4.91-13.915-4.91
			c-3.691,0-6.983,0.522-9.883,1.571c-2.895,1.052-5.141,2.521-6.734,4.406c-1.593,1.889-2.39,4.136-2.39,6.736
			c0,2.437,0.772,4.22,2.328,5.353c1.55,1.133,3.796,1.699,6.733,1.699c0-6.968,0.697-11.79,2.078-14.479
			c1.389-2.686,3.672-4.03,6.865-4.03c2.097,0,3.777,0.548,5.034,1.637c1.257,1.093,2.178,2.897,2.77,5.415
			c0.585,2.517,0.884,6.002,0.884,10.448v12.089l-8.184,0.377c-7.643,0.336-13.306,2.035-17.002,5.1
			c-3.691,3.065-5.539,7.91-5.539,14.541c0,6.127,1.425,10.828,4.281,14.103c2.851,3.27,6.504,4.91,10.953,4.91
			c2.521,0,4.786-0.505,6.803-1.513c2.01-1.008,3.752-2.518,5.221-4.534c1.469-2.013,2.626-4.446,3.467-7.3h0.249v12.086h17.12
			v-1.26h-0.249C668.373,759.239,667.134,759.009,666.251,758.548z M652.846,738.089c0,3.861-0.504,7.365-1.513,10.511
			c-1.008,3.149-2.396,5.648-4.157,7.493c-1.761,1.846-3.821,2.77-6.167,2.77c-1.762,0-3.229-0.566-4.406-1.699
			c-1.176-1.132-2.06-2.896-2.645-5.29c-0.592-2.39-0.884-5.433-0.884-9.126c0-6.043,0.989-10.533,2.962-13.471
			c1.967-2.938,5.645-4.574,11.016-4.91l5.794-0.38V738.089z M709.876,759.618c-2.607,0-4.512-0.986-5.731-2.959
			s-1.823-5.517-1.823-10.639v-51.747h12.839v-1.257h-12.839v-15.362h-1.264c-0.336,2.604-0.939,4.953-1.823,7.051
			c-0.878,2.101-2.16,3.821-3.84,5.162c-1.257,0.925-2.832,1.659-4.724,2.203c-1.886,0.548-4.176,0.862-6.858,0.946v1.257h7.556
			v48.094c0,7.304,1.213,12.363,3.646,15.173c2.434,2.813,6.006,4.22,10.704,4.22c2.266,0,4.301-0.212,6.105-0.632
			s3.255-0.837,4.344-1.258v-1.26c-1.345,0.336-2.496,0.588-3.46,0.756C711.743,759.534,710.797,759.618,709.876,759.618z
			 M759.731,726.442c-2.266-1.638-4.83-3.212-7.68-4.721c-2.944-1.678-5.396-3.23-7.368-4.658c-1.974-1.429-3.442-3.043-4.406-4.848
			c-0.965-1.806-1.444-4.049-1.444-6.737c0-2.686,0.436-4.929,1.319-6.733s2.098-3.168,3.653-4.092
			c1.55-0.925,3.373-1.385,5.477-1.385c3.441,0,5.894,1.341,7.362,4.026c1.469,2.688,2.203,7.135,2.203,13.346
			c2.265,0,3.964-0.585,5.103-1.761c1.133-1.177,1.699-2.854,1.699-5.038c0-2.266-0.591-4.278-1.768-6.043
			c-1.176-1.761-2.938-3.167-5.283-4.216c-2.353-1.049-5.29-1.575-8.813-1.575c-5.713,0-10.225,1.513-13.536,4.534
			c-3.316,3.021-4.972,7.512-4.972,13.471c0,3.693,0.647,6.715,1.947,9.063c1.301,2.353,3.149,4.406,5.539,6.171
			c2.396,1.761,5.228,3.609,8.501,5.539c2.851,1.68,5.203,3.192,7.051,4.533c1.843,1.345,3.23,2.875,4.157,4.593
			c0.921,1.724,1.382,4.011,1.382,6.864c0,4.615-1.07,8.057-3.211,10.321c-2.141,2.269-5.06,3.401-8.75,3.401
			c-2.77,0-5.017-0.694-6.733-2.078c-1.725-1.385-2.963-3.526-3.716-6.42c-0.753-2.896-1.133-6.652-1.133-11.268
			c-1.176,0-2.265,0.249-3.273,0.753c-1.008,0.505-1.805,1.305-2.39,2.394c-0.591,1.092-0.884,2.518-0.884,4.281
			c0,2.182,0.566,4.322,1.699,6.42c1.133,2.1,3,3.82,5.601,5.162c2.602,1.341,6.043,2.017,10.325,2.017
			c6.627,0,11.606-1.743,14.923-5.229c3.312-3.481,4.973-8.202,4.973-14.164c0-4.026-0.697-7.278-2.078-9.755
			C763.82,730.136,761.996,728.079,759.731,726.442z M808.074,691.884c-8.141,0-14.184,2.875-18.129,8.622
			c-3.945,5.751-5.918,14.501-5.918,26.25c0,11.921,2.097,20.733,6.291,26.44c4.201,5.71,10.032,8.563,17.5,8.563
			c7.892,0,13.854-2.835,17.88-8.502c4.033-5.663,6.043-14.497,6.043-26.502c0-11.665-2.01-20.394-6.043-26.188
			C821.672,694.777,815.797,691.884,808.074,691.884z M819.594,746.397c-0.797,4.953-2.142,8.541-4.027,10.766
			c-1.892,2.226-4.431,3.336-7.617,3.336c-3.024,0-5.477-1.11-7.368-3.336c-1.886-2.225-3.273-5.813-4.151-10.766
			c-0.884-4.951-1.325-11.498-1.325-19.642c0-8.308,0.398-14.917,1.195-19.827c0.796-4.91,2.141-8.436,4.032-10.576
			c1.886-2.142,4.381-3.212,7.486-3.212c3.28,0,5.856,1.07,7.748,3.212c1.886,2.141,3.23,5.666,4.027,10.576
			c0.796,4.91,1.194,11.52,1.194,19.827C820.788,734.899,820.39,741.446,819.594,746.397z M906.147,759.239
			c-2.011,0-3.541-0.23-4.593-0.691c-1.052-0.46-1.762-1.341-2.141-2.645c-0.38-1.301-0.566-3.252-0.566-5.854v-34.875
			c0-8.141-1.319-14.059-3.965-17.752c-2.645-3.694-6.82-5.539-12.527-5.539c-2.856,0-5.309,0.545-7.368,1.637
			c-2.054,1.089-3.734,2.602-5.035,4.53c-1.301,1.933-2.327,4.198-3.08,6.799h-0.255v-11.833h-19.013v1.257h0.629
			c2.184,0,3.82,0.212,4.91,0.632c1.095,0.42,1.829,1.238,2.203,2.455c0.379,1.217,0.572,3.127,0.572,5.729v46.961
			c0,2.602-0.193,4.574-0.572,5.916c-0.374,1.344-1.133,2.225-2.266,2.645s-2.832,0.629-5.097,0.629h-0.753v1.26h27.693v-1.26
			h-0.629c-2.097,0-3.69-0.209-4.785-0.629c-1.089-0.42-1.823-1.279-2.203-2.579c-0.373-1.301-0.566-3.212-0.566-5.729v-32.734
			c0-5.371,0.522-9.715,1.574-13.031c1.052-3.314,2.478-5.747,4.282-7.304c1.805-1.553,3.84-2.327,6.104-2.327
			c3.441,0,5.856,1.553,7.238,4.658c1.388,3.105,2.078,7.888,2.078,14.351v46.585h18.633v-1.26H906.147z"/>
	</g>
</g>
</svg>
