<svg id="Layer_1" data-name="Layer 1" xmlns="http://www.w3.org/2000/svg" xmlns:xlink="http://www.w3.org/1999/xlink" viewBox="0 0 2377.3 769"><defs><style>.cls-1,.cls-12,.cls-2{fill:#fff;}.cls-2{stroke:#fff;stroke-miterlimit:10;stroke-width:0.5px;}.cls-3{fill:url(#linear-gradient);}.cls-4{fill:#00a551;}.cls-5{fill:url(#linear-gradient-2);}.cls-6{fill:url(#linear-gradient-3);}.cls-7{fill:url(#linear-gradient-4);}.cls-8{fill:url(#linear-gradient-5);}.cls-9{fill:url(#linear-gradient-6);}.cls-10{fill:url(#linear-gradient-7);}.cls-11{fill:url(#linear-gradient-8);}.cls-12{font-size:91.67px;}.cls-12,.cls-13{font-family:ErasITC-Medium, Eras Medium ITC;font-weight:500;}.cls-13{font-size:88.89px;fill:#009345;}</style><linearGradient id="linear-gradient" x1="1346.28" y1="154.14" x2="1617.69" y2="154.14" gradientUnits="userSpaceOnUse"><stop offset="0" stop-color="#009345"/><stop offset="0.51" stop-color="#1ea448"/><stop offset="1" stop-color="#37b34a"/></linearGradient><linearGradient id="linear-gradient-2" x1="1375.4" y1="527.58" x2="1463.6" y2="442.3" gradientUnits="userSpaceOnUse"><stop offset="0" stop-color="#009345"/><stop offset="0.25" stop-color="#069646"/><stop offset="0.56" stop-color="#16a047"/><stop offset="0.92" stop-color="#30af49"/><stop offset="1" stop-color="#37b34a"/></linearGradient><linearGradient id="linear-gradient-3" x1="1468.76" y1="399.21" x2="1542.33" y2="358.36" gradientUnits="userSpaceOnUse"><stop offset="0.01" stop-color="#009345"/><stop offset="1" stop-color="#37b34a"/></linearGradient><linearGradient id="linear-gradient-4" x1="1612.21" y1="474.93" x2="1654.19" y2="430.02" gradientUnits="userSpaceOnUse"><stop offset="0" stop-color="#009345"/><stop offset="1" stop-color="#37b34a"/></linearGradient><linearGradient id="linear-gradient-5" x1="1362.58" y1="168.43" x2="1417.98" y2="193.53" xlink:href="#linear-gradient-4"/><linearGradient id="linear-gradient-6" x1="1548.73" y1="279.38" x2="1660.46" y2="154.88" gradientUnits="userSpaceOnUse"><stop offset="0.01" stop-color="#009345"/><stop offset="0.26" stop-color="#129d47"/><stop offset="0.73" stop-color="#2dad49"/><stop offset="1" stop-color="#37b34a"/></linearGradient><linearGradient id="linear-gradient-7" x1="1385.67" y1="474.44" x2="1455.82" y2="390.38" xlink:href="#linear-gradient-3"/><linearGradient id="linear-gradient-8" x1="1567.52" y1="523.08" x2="1657.69" y2="425.95" xlink:href="#linear-gradient-4"/></defs><rect x="1072.1" width="940" height="769"/><rect class="cls-1" x="998.6" y="42.9" width="9.2" height="680.2"/><path class="cls-1" d="M511,555.71c.72,4.18,1.82,7.8,1.88,11.43.21,13.16.16,26.32,0,39.47-.06,5.92,1.38,12.16-3.24,17.31h16.94c-.86-2.58-2.37-5-2.41-7.55-.23-14.14-.11-28.28-.11-42.87a9,9,0,0,1,1.16.72q24.76,23.85,49.53,47.7c.89.86,2,2.09,3,2.15,4.43.24,8.88.1,13.3.1,0-18.22,0-36,0-53.88,0-5-.06-9.9,3.48-14.33H578.05c.78,3.32,2.12,6.52,2.19,9.74.26,12.55.11,25.12.1,37.68a24.27,24.27,0,0,1-.29,2.49c-1.39-1.27-2.44-2.18-3.43-3.15-14.23-14-28.58-27.81-42.58-42-3.65-3.71-7.24-5.65-12.45-5.09A94.6,94.6,0,0,1,511,555.71Z"/><path class="cls-1" d="M307.51,573.49c.93.74,1.39,1,1.77,1.42q10.85,10.5,21.67,21,13.31,12.9,26.66,25.76c1,1,2.34,2.29,3.59,2.37,4.44.29,8.91.12,13.53.12v-2.36c0-17.54.06-35.08,0-52.63,0-4.68,0-9.29,3.41-13.19h-16.9c.87,3.18,2.34,6.17,2.4,9.19.27,13.15.12,26.31.12,39.47a14.24,14.24,0,0,1-.18,1.48c-.79-.74-1.28-1.17-1.75-1.63q-23.57-23.16-47.16-46.28a7.59,7.59,0,0,0-4.24-2.36c-5.54-.27-11.11-.11-17.41-.11,3.72,4.16,3.63,8.66,3.65,13.12,0,13.06.07,26.12,0,39.18,0,5.47.73,11.15-3.57,15.86h16.55c-.73-3.25-2-6.42-2.07-9.62-.24-12.55-.1-25.12-.1-37.68Z"/><path class="cls-1" d="M800.12,614.05c-10.47-.06-20.94,0-31.41,0h-3.32V594.44h38.49V584.05H765.33V565.66c7.52,0,14.87-.15,22.22,0,9.8.26,19.85-1,28.82,4.31V555.72H745.1c3.34,3.51,4,7.29,4,11.36-.07,12.56.12,25.13-.09,37.69-.1,6.5,1.79,13.37-3.38,19.24h72.65V609.69C812.6,613.69,806.42,614.08,800.12,614.05Z"/><path class="cls-1" d="M396.11,567.45c-.07,12.66.07,25.32-.06,38-.06,6.31,1.36,12.91-3.34,18.57h22.88c-.92-2.25-2.48-4.38-2.57-6.57-.32-7.62-.12-15.26-.12-22.89h37.39V584H412.92V565.91c9.31,0,18.36-.12,27.4,0,6.92.13,13.9.31,20.14,4.56V556H392.52C395.56,559.57,396.13,563.38,396.11,567.45Z"/><path class="cls-1" d="M647.52,570.47c11-6.35,22.87-4.51,34.73-4.9.08,1.62.2,3,.21,4.36,0,11.25.16,22.51,0,33.76-.11,6.89,1.76,14.15-3.67,20.33h22.18c-.77-3.19-2.13-6.35-2.18-9.52-.23-15.63-.12-31.27-.1-46.91a11.34,11.34,0,0,1,.42-2.07c11.46.47,23-1.24,33.63,4.8V555.83H647.52Z"/><path class="cls-1" d="M253.24,544.9c.57,3.84,1.56,7.57,1.6,11.31.16,18.43,0,36.86.08,55.29,0,4.36.32,8.75-3.29,12.42h21.66c-.76-3.25-2.12-6.43-2.16-9.63-.22-16.53-.19-33.07-.07-49.61.05-6.73-1.42-13.74,3.34-19.78Z"/><path class="cls-1" d="M494.79,624.11c-3.31-3.7-3.48-7.77-3.49-11.87q0-22.28,0-44.55c0-4.1.31-8.12,3.59-11.68H472.25c3.73,4.65,3.44,9.65,3.42,14.63,0,12,.08,23.92-.05,35.88-.07,5.93,1.38,12.14-3.16,17.59Z"/><path class="cls-1" d="M633.3,624c-3.29-3.58-3.37-7.71-3.36-11.9,0-12.65-.06-25.29.06-37.93.06-6.13-1.29-12.51,3.19-18.31h-21.9c4,5.19,3.53,10.9,3.53,16.54q0,19,.07,37.93c0,4.76.24,9.52-3.62,13.67Z"/><path class="cls-1" d="M395.19,262.35a3.32,3.32,0,0,0-1.27-2.57c-3.75-2-7.63-3.72-12-5.82,0,3.42-.06,6.18,0,8.94.32,12.84.71,25.68,1,38.53.46,19.52.85,39,1.29,58.56q.3,13.29.68,26.59,1.1,39.89,2.21,79.76.38,13.14.73,26.3h1c0-5.86-.12-11.73,0-17.6q.81-34.06,1.77-68.12c.74-25.19,1.59-50.37,2.4-75.56Q394.13,296.85,395.19,262.35Z"/><path class="cls-1" d="M413.24,495c0-6.44-.17-12.88,0-19.32.54-17.82,1.25-35.64,1.85-53.45q1.25-36.89,2.44-73.76.88-27,1.73-54.06.31-10.31.34-20.61c0-1-.51-2.59-1.26-3-3.55-1.9-7.27-3.48-11.5-5.45,1.71,77.05,3.41,153.35,5.11,229.66Z"/><path class="cls-1" d="M432,324.07c.58,20.81,1.2,41.62,1.74,62.42q1,38.83,1.89,77.66.39,16,.83,32a72.31,72.31,0,0,0,.78-8q1.28-40,2.49-80c.65-21.21,1.25-42.41,1.91-63.62.25-7.86.64-15.72.87-23.58q.54-18.52.88-37.05a3,3,0,0,0-1.29-2.29c-3.52-1.77-7.15-3.33-11.25-5.2,0,2.23,0,3.92,0,5.6Q431.38,303,432,324.07Z"/><path class="cls-1" d="M568.73,349.6c.47-13.64,1-27.28,1.38-40.93.49-16.33.81-32.67,1.34-49,.68-21.21,1.53-42.41,2.24-63.62q.79-24.33,1.37-48.68a3.53,3.53,0,0,0-1.14-2.71c-3.62-2.18-7.4-4.12-11.67-6.43,1.9,70.88,3.79,141.13,5.67,211.39Z"/><path class="cls-1" d="M540.73,201.32q1,32.28,1.78,64.54,1,40.78,2,81.58c0,1.14,0,2.29,0,3.43l.87-.05c0-1.08.13-2.15.16-3.23.34-13.34.74-26.69,1-40,.37-18.93.61-37.86.94-56.79q.25-14.35.65-28.7,1.15-44.82,2.29-89.65a3.44,3.44,0,0,0-1.32-2.55c-3.27-2.05-6.67-3.88-10.57-6.11,0,3-.07,5.32,0,7.68C539.24,154.73,540,178,540.73,201.32Z"/><path class="cls-1" d="M466.85,292.3c-3.41-1.77-6.91-3.35-11.19-5.37,1.78,70.24,3.54,139.77,5.31,209.29a11.49,11.49,0,0,0,.83-4c.27-11.35.46-22.71.73-34.06.18-7.47.37-14.93.67-22.4.7-17.81,1.55-35.61,2.2-53.42.38-10.65.43-21.31.73-32,.22-7.76.67-15.52.9-23.29q.48-16.27.75-32.57A2.81,2.81,0,0,0,466.85,292.3Z"/><path class="cls-1" d="M485.53,499c.26-5.07.57-10.13.75-15.2q1.26-36,2.45-72c.5-15.63.85-31.28,1.31-46.92.21-7.27.56-14.53.76-21.8q.56-19.12.95-38.25a2.83,2.83,0,0,0-.94-2.22c-3.5-1.78-7.1-3.37-11.3-5.31,2,67.58,3.9,134.59,5.84,201.6Z"/><path class="cls-1" d="M592,342.47c.24-4.17.53-8.33.69-12.5q1-26.28,1.89-52.55c.63-19,1.17-38,1.76-57q.9-28.81,1.8-57.64c0-.81-.1-2.06-.62-2.39-3.77-2.42-7.65-4.65-11.95-7.21,2,63.61,3.94,126.5,5.9,189.39Z"/><path class="cls-1" d="M666.4,423.25c.47,15.87.83,31.75,1.37,47.63.28,8.13.87,16.26,1.31,24.39l.94,0c2.16-55.68,4.31-111.37,6.49-167.53-2.7,1.1-4.72,1.86-6.68,2.73-6.2,2.75-6.16,2.76-6,9.34Q665.16,381.53,666.4,423.25Z"/><path class="cls-1" d="M509.63,496.46q.92-25.83,1.82-51.65,1-29.4,1.91-58.81c.25-7.57.54-15.13.78-22.7.52-15.92,1-31.85,1.46-47.78a3.43,3.43,0,0,0-1.29-2.64c-3.31-1.74-6.76-3.22-10.46-4.93,1.68,63.59,3.34,126.74,5,189.9A1.52,1.52,0,0,0,509.63,496.46Z"/><path class="cls-1" d="M639.65,346.28c.45,11.74.71,23.49,1.15,35.23.73,19.82,1.59,39.62,2.31,59.44.5,13.95.83,27.9,1.32,41.85.13,3.8.53,7.59.81,11.38h.92c2.21-52.27,4.42-104.55,6.64-157.18-3.81,1.79-7.09,3.59-10.57,4.89C639.85,342.79,639.57,344.16,639.65,346.28Z"/><path class="cls-1" d="M615.42,338c.85-16.89,1.81-33.77,2.51-50.66.61-14.82.91-29.66,1.39-44.49.26-8.26.65-16.51.93-24.77q.69-20.44,1.28-40.89c0-.9-.21-2.23-.8-2.63-3.44-2.29-7-4.35-11.31-6.95,1.76,57.35,3.5,113.88,5.23,170.41Z"/><path class="cls-1" d="M616.15,356.76q1.27,34.07,2.42,68.14c.48,14.05.86,28.1,1.3,42.15.18,5.58.38,11.16.64,16.74.21,4.22.53,8.43.81,12.64l.8,0c2.25-49.48,4.51-98.95,6.78-149-3.75,1.83-6.72,3.61-9.94,4.75C616.44,353.09,616.07,354.52,616.15,356.76Z"/><path class="cls-1" d="M592.4,365.94q1.25,29,2.26,58c.66,17.9,1.22,35.8,1.94,53.7.26,6.43.88,12.84,1.34,19.27l.54,0c2.19-46.49,4.38-93,6.6-139.94-3.64,1.64-6.68,3.25-9.9,4.38C592.71,362.26,592.31,363.64,592.4,365.94Z"/><path class="cls-1" d="M639.27,329c.47-7.44,1.09-14.87,1.39-22.31.71-17.31,1.26-34.63,1.89-51.95.24-6.47.52-12.94.76-19.41q.81-21.94,1.56-43.89c0-.81-.15-2-.68-2.4-3.35-2.19-6.83-4.19-10.88-6.62l5.37,146.45Z"/><path class="cls-1" d="M488,179.37c.53,17.26.85,34.54,1.34,51.81.4,14.42.91,28.84,1.38,43.26l.81,0c1.88-74.28,3.76-148.56,5.66-223.49-4.26,2.45-8,4.49-11.67,6.79a3.86,3.86,0,0,0-1.13,2.87q.6,25.74,1.37,51.47C486.47,134.53,487.33,156.94,488,179.37Z"/><path class="cls-1" d="M512,179.9c.34,21.38.58,42.76.94,64.13.26,15.08.66,30.14,1,45.21,0,1.22.1,2.43.16,3.65l.87.06c0-1.29,0-2.59,0-3.88q1-46,2-92.11.82-36.44,1.78-72.87,1-39.47,2.21-78.92c.08-2.67,0-5.34,0-8.67-3.91,2.51-7.31,4.58-10.57,6.9a4.07,4.07,0,0,0-1.32,2.88q1.06,50.61,2.29,101.23Q511.73,163.7,512,179.9Z"/><path class="cls-1" d="M461.89,73.49c-.51.35-.63,1.66-.61,2.52q.86,30.36,1.8,60.71c.59,20,1.13,40,1.76,60.06q.87,27.67,1.89,55.35c.16,4.39.45,8.78.68,13.17l.53.06c2-66.23,3.93-132.47,5.91-199.46C469.55,68.59,465.66,71,461.89,73.49Z"/><path class="cls-1" d="M440.14,155.58c.48,14.83.77,29.67,1.39,44.49.69,16.89,1.66,33.77,2.51,50.66l.77,0c1.73-56.53,3.47-113.06,5.23-170.41-4.29,2.6-7.87,4.66-11.31,7-.6.4-.83,1.73-.8,2.63q.57,20.44,1.28,40.89C439.49,139.07,439.88,147.32,440.14,155.58Z"/><path class="cls-1" d="M416.9,167.44c.63,17.32,1.19,34.64,1.9,51.95.3,7.44.91,14.87,1.39,22.31l.59-.13,5.37-146.45c-4,2.43-7.53,4.43-10.88,6.62-.53.35-.71,1.59-.68,2.4q.74,21.94,1.56,43.89C416.39,154.5,416.67,161,416.9,167.44Z"/><path class="cls-1" d="M568.9,374.9c.45,11.83.78,23.66,1.22,35.49q1.21,32.88,2.53,65.77c.29,7,.89,14,1.34,21h.53c2.24-43.3,4.48-86.6,6.75-130.54-3.84,1.73-6.92,3.26-10.11,4.51C569.25,371.91,568.83,373.07,568.9,374.9Z"/><path class="cls-1" d="M545.58,384.27c.45,9.52.79,19,1.2,28.56q.9,21.19,1.84,42.4c.45,10.38.85,20.77,1.31,31.15.19,4.21.49,8.41.74,12.62h.45c2.07-40.62,4.14-81.24,6.24-122.47-3.69,1.7-6.66,3.2-9.74,4.44A2.85,2.85,0,0,0,545.58,384.27Z"/><path class="cls-2" d="M365.35,672.12c-7.94-2.75-11.44-5.12-11.44-9.94,0-3.52,3-7.72,10.84-7.72a25.11,25.11,0,0,1,10.93,2.44l2.05-5.42C375.17,650.17,370.9,649,365,649c-11.19,0-18.62,6-18.62,14,0,7.26,5.81,11.62,15.2,14.61,7.77,2.67,10.85,5.43,10.85,10.24,0,5.2-4.44,8.8-12,8.8a28.71,28.71,0,0,1-13.32-3.36l-1.88,5.58c3.07,1.83,9.14,3.29,14.69,3.29,13.57,0,20.15-6.89,20.15-14.84C380,679.7,375.08,675.49,365.35,672.12Z"/><polygon class="cls-2" points="446.8 671.36 418.96 671.36 418.96 649.79 411.53 649.79 411.53 701.34 418.96 701.34 418.96 677.17 446.8 677.17 446.8 701.34 454.32 701.34 454.32 649.79 446.8 649.79 446.8 671.36"/><path class="cls-2" d="M503.74,649.79l-19.55,51.55h7.68l6-16.21h20.41l6.15,16.21h7.94l-19.64-51.55Zm-4.35,30.14L505,665c1.11-3.14,2.05-6.27,2.9-9.33h.18c.85,3,1.7,6,3,9.41l5.63,14.84Z"/><path class="cls-2" d="M586.72,676.79v-.23c6.07-1.83,10.85-6.35,10.85-13.15a12.22,12.22,0,0,0-4.52-9.79c-3.59-2.91-8.72-4.21-16.66-4.21a86,86,0,0,0-14.26,1.07v50.86h7.43V679h7c6.75.23,9.82,2.9,11.53,10,1.62,6.42,2.9,10.86,3.84,12.31h7.69c-1.2-2-2.56-7-4.44-14.15C593.81,681.84,591.17,678.17,586.72,676.79ZM577.16,674h-7.6V655.15a33.64,33.64,0,0,1,7.35-.62c7.85.08,13.23,3,13.23,9.64C590.14,670.06,585.1,674,577.16,674Z"/><polygon class="cls-2" points="636.84 677.17 659.21 677.17 659.21 671.66 636.84 671.66 636.84 655.38 660.49 655.38 660.49 649.79 629.41 649.79 629.41 701.34 661.77 701.34 661.77 695.76 636.84 695.76 636.84 677.17"/><path class="cls-2" d="M710,672.12c-7.94-2.75-11.44-5.12-11.44-9.94,0-3.52,3-7.72,10.84-7.72a25.11,25.11,0,0,1,10.93,2.44l2.06-5.42c-2.57-1.31-6.84-2.53-12.73-2.53-11.19,0-18.61,6-18.61,14,0,7.26,5.8,11.62,15.2,14.61,7.77,2.67,10.84,5.43,10.84,10.24,0,5.2-4.44,8.8-12,8.8a28.71,28.71,0,0,1-13.32-3.36l-1.88,5.58c3.08,1.83,9.14,3.29,14.69,3.29,13.58,0,20.15-6.89,20.15-14.84C724.69,679.7,719.74,675.49,710,672.12Z"/><path class="cls-3" d="M1613,121l-210.45,1.06-19.56.1c-13.53,1.77-25.62,7.18-32,16.52a31.55,31.55,0,0,0-4.73,11.44v37.16h232.41l19.68-21.49,19.32-21.11-2.62-2.38L1601.55,130l-4.33-4-.08-.07.72-.13Z"/><path class="cls-4" d="M1412.65,464.68s0,.05-.06.08c-.43,0-.85-.07-1.27-.08Z"/><path class="cls-5" d="M1471.73,493.55v18.61H1361.57a25.45,25.45,0,0,1-16-7.51,29.07,29.07,0,0,1-8-10.29,38.48,38.48,0,0,1,5.54-12.17,41.46,41.46,0,0,1,32-17.51h69.57v28.87Z"/><rect class="cls-4" x="1536.53" y="464.68" width="6.4" height="14.76"/><rect class="cls-4" x="1509.71" y="493.55" width="7.04" height="18.61"/><polygon class="cls-6" points="1542.93 277.78 1542.93 479.44 1516.74 479.44 1516.74 528.37 1485.53 528.37 1485.53 479.44 1458.78 479.44 1458.78 277.78 1485.53 277.78 1485.53 234.1 1516.74 234.1 1516.74 277.78 1542.93 277.78"/><path class="cls-7" d="M1662.72,417.57v62.49a27.85,27.85,0,0,1-4.41,14.1c-6.56,9.88-20.59,15.76-36,17.63h-21V417.57Z"/><path class="cls-8" d="M1407.1,122.16c-2.11,1.84-14.29,12.81-15,31.11-.77,20.24,13.13,32.81,15,34.43v39.78h-60.82V150.12a31.69,31.69,0,0,1,4.71-11.44c6.34-9.34,18.37-14.75,31.81-16.52Z"/><polygon class="cls-9" points="1699.63 114.12 1698.71 121.4 1691.96 174.45 1689.82 191.33 1689.7 192.27 1689.33 191.92 1674.13 178.02 1557 306.67 1557 262.68 1532.34 262.68 1638.83 145.69 1620.77 129.15 1691.71 115.63 1699.63 114.12"/><path class="cls-10" d="M1444.64,352.4v73.68L1431.09,441q-11.17,11.86-22.35,23.71a38.54,38.54,0,0,0-10.24,26,37.89,37.89,0,0,0,7.1,21.44h-44a25.45,25.45,0,0,1-16-7.51,29.07,29.07,0,0,1-8-10.29,26.46,26.46,0,0,1-2-6.39c-2.54-14.47,8.15-24.82,9-25.66l39.37-43.24Z"/><path class="cls-11" d="M1662.72,464.68v15.75a27.85,27.85,0,0,1-4.41,14.1c-6.56,9.88-20.59,15.76-36,17.63h-92.12V493.55H1557V464.68h44.25a47.83,47.83,0,0,0,31.61,11.48,45.91,45.91,0,0,0,9.35-1.15A48.09,48.09,0,0,0,1662.72,464.68Z"/><text class="cls-12" transform="translate(1273.14 645.25)">Trade</text><text class="cls-13" transform="translate(1508.86 646.26)">Zanga</text></svg>