<?xml version="1.0" encoding="utf-8"?>
<!-- Generator: Adobe Illustrator 25.4.1, SVG Export Plug-In . SVG Version: 6.00 Build 0)  -->
<svg version="1.1" id="Layer_1" xmlns="http://www.w3.org/2000/svg" xmlns:xlink="http://www.w3.org/1999/xlink" x="0px" y="0px"
	 viewBox="0 0 2377.3 769" style="enable-background:new 0 0 2377.3 769;" xml:space="preserve">
<style type="text/css">
	.st0{fill:#FFFFFF;}
	.st1{fill:#FFFFFF;stroke:#FFFFFF;stroke-width:0.5;stroke-miterlimit:10;}
	.st2{fill:url(#SVGID_1_);}
	.st3{fill:#00A551;}
	.st4{fill:url(#SVGID_00000062898978834856415590000003683689416825077940_);}
	.st5{fill:url(#SVGID_00000131355289020355085750000002586099431984487830_);}
	.st6{fill:url(#SVGID_00000064333503264289199010000014670973473108949931_);}
	.st7{fill:url(#SVGID_00000121249797585560536960000000689317603594988434_);}
	.st8{fill:url(#SVGID_00000041289822308516399940000002452270372185405078_);}
	.st9{fill:url(#SVGID_00000106864298505043831950000009993533814019070592_);}
	.st10{fill:url(#SVGID_00000109011204412378046920000018426805242975887786_);}
	.st11{font-family:'ErasITC-Medium';}
	.st12{font-size:124.4849px;}
	.st13{fill:#009345;}
	.st14{font-size:120.6999px;}
</style>
<rect x="-1487.6" y="-1086.5" width="2564.6" height="1028.8"/>
<rect x="1193.6" y="42.9" class="st0" width="9.2" height="680.2"/>
<g>
	<path class="st0" d="M706,555.7c0.7,4.2,1.8,7.8,1.9,11.4c0.2,13.2,0.2,26.3,0,39.5c-0.1,5.9,1.4,12.2-3.2,17.3
		c6.1,0,11.7,0,16.9,0c-0.9-2.6-2.4-5.1-2.4-7.6c-0.2-14.1-0.1-28.3-0.1-42.9c0.7,0.4,1,0.5,1.2,0.7c16.5,15.9,33,31.8,49.5,47.7
		c0.9,0.9,2,2.1,3,2.1c4.4,0.2,8.9,0.1,13.3,0.1c0-18.2,0-36.1,0-53.9c0-5-0.1-9.9,3.5-14.3c-6,0-11.5,0-16.5,0
		c0.8,3.3,2.1,6.5,2.2,9.7c0.3,12.6,0.1,25.1,0.1,37.7c0,0.7-0.2,1.4-0.3,2.5c-1.4-1.3-2.4-2.2-3.4-3.2c-14.2-14-28.6-27.8-42.6-42
		c-3.7-3.7-7.2-5.6-12.5-5.1C712.8,556,709,555.7,706,555.7z"/>
	<path class="st0" d="M502.5,573.5c0.9,0.7,1.4,1,1.8,1.4c7.2,7,14.4,14,21.7,21c8.9,8.6,17.7,17.2,26.7,25.8c1,1,2.3,2.3,3.6,2.4
		c4.4,0.3,8.9,0.1,13.5,0.1c0-1,0-1.7,0-2.4c0-17.5,0.1-35.1,0-52.6c0-4.7,0-9.3,3.4-13.2c-6,0-11.7,0-16.9,0
		c0.9,3.2,2.3,6.2,2.4,9.2c0.3,13.2,0.1,26.3,0.1,39.5c0,0.4-0.1,0.7-0.2,1.5c-0.8-0.7-1.3-1.2-1.7-1.6
		c-15.7-15.4-31.4-30.9-47.2-46.3c-1.1-1.1-2.8-2.3-4.2-2.4c-5.5-0.3-11.1-0.1-17.4-0.1c3.7,4.2,3.6,8.7,3.6,13.1
		c0,13.1,0.1,26.1,0,39.2c0,5.5,0.7,11.2-3.6,15.9c6.1,0,11.8,0,16.6,0c-0.7-3.3-2-6.4-2.1-9.6c-0.2-12.6-0.1-25.1-0.1-37.7
		C502.5,575.8,502.5,574.9,502.5,573.5z"/>
	<path class="st0" d="M995.1,614c-10.5-0.1-20.9,0-31.4,0c-1.1,0-2.1,0-3.3,0c0-6.7,0-13.1,0-19.6c12.9,0,25.7,0,38.5,0
		c0-3.4,0-6.7,0-10.4c-13,0-25.7,0-38.5,0c0-6.3,0-12.2,0-18.4c7.5,0,14.9-0.2,22.2,0c9.8,0.3,19.9-1,28.8,4.3c0-4.9,0-9.6,0-14.3
		c-23.7,0-47.1,0-71.3,0c3.3,3.5,4,7.3,4,11.4c-0.1,12.6,0.1,25.1-0.1,37.7c-0.1,6.5,1.8,13.4-3.4,19.2c24.6,0,48.6,0,72.6,0
		c0-4.8,0-9.4,0-14.3C1007.6,613.7,1001.4,614.1,995.1,614z"/>
	<path class="st0" d="M591.1,567.5c-0.1,12.7,0.1,25.3-0.1,38c-0.1,6.3,1.4,12.9-3.3,18.6c8,0,15.5,0,22.9,0
		c-0.9-2.3-2.5-4.4-2.6-6.6c-0.3-7.6-0.1-15.3-0.1-22.9c12.6,0,25,0,37.4,0c0-3.4,0-6.9,0-10.5c-12.6,0-24.9,0-37.4,0
		c0-6.1,0-12.1,0-18.1c9.3,0,18.4-0.1,27.4,0c6.9,0.1,13.9,0.3,20.1,4.6c0-5.1,0-9.8,0-14.5c-22.6,0-45.1,0-67.9,0
		C590.6,559.6,591.1,563.4,591.1,567.5z"/>
	<path class="st0" d="M842.5,570.5c11-6.4,22.9-4.5,34.7-4.9c0.1,1.6,0.2,3,0.2,4.4c0,11.3,0.2,22.5,0,33.8
		c-0.1,6.9,1.8,14.1-3.7,20.3c8,0,15.4,0,22.2,0c-0.8-3.2-2.1-6.3-2.2-9.5c-0.2-15.6-0.1-31.3-0.1-46.9c0-0.6,0.3-1.3,0.4-2.1
		c11.5,0.5,23-1.2,33.6,4.8c0-4.9,0-9.7,0-14.5c-28.5,0-56.8,0-85.2,0C842.5,560.7,842.5,565.4,842.5,570.5z"/>
	<path class="st0" d="M448.2,544.9c0.6,3.8,1.6,7.6,1.6,11.3c0.2,18.4,0.1,36.9,0.1,55.3c0,4.4,0.3,8.7-3.3,12.4
		c7.8,0,15.2,0,21.7,0c-0.8-3.3-2.1-6.4-2.2-9.6c-0.2-16.5-0.2-33.1-0.1-49.6c0-6.7-1.4-13.7,3.3-19.8
		C461.8,544.9,454.6,544.9,448.2,544.9z"/>
	<path class="st0" d="M689.8,624.1c-3.3-3.7-3.5-7.8-3.5-11.9c0-14.8,0-29.7,0-44.6c0-4.1,0.3-8.1,3.6-11.7c-7.6,0-14.8,0-22.6,0
		c3.7,4.6,3.4,9.7,3.4,14.6c0,12,0.1,23.9-0.1,35.9c-0.1,5.9,1.4,12.1-3.2,17.6C675.1,624.1,682.1,624.1,689.8,624.1z"/>
	<path class="st0" d="M828.3,624c-3.3-3.6-3.4-7.7-3.4-11.9c0-12.6-0.1-25.3,0.1-37.9c0.1-6.1-1.3-12.5,3.2-18.3
		c-7.5,0-14.5,0-21.9,0c3.9,5.2,3.5,10.9,3.5,16.5c0,12.6,0,25.3,0.1,37.9c0,4.8,0.2,9.5-3.6,13.7C813.9,624,820.9,624,828.3,624z"
		/>
	<path class="st0" d="M590.2,262.4c0-0.9-0.6-2.2-1.3-2.6c-3.7-2-7.6-3.7-12-5.8c0,3.4-0.1,6.2,0,8.9c0.3,12.8,0.7,25.7,1,38.5
		c0.5,19.5,0.8,39,1.3,58.6c0.2,8.9,0.4,17.7,0.7,26.6c0.7,26.6,1.5,53.2,2.2,79.8c0.2,8.8,0.5,17.5,0.7,26.3c0.3,0,0.7,0,1,0
		c0-5.9-0.1-11.7,0-17.6c0.5-22.7,1.1-45.4,1.8-68.1c0.7-25.2,1.6-50.4,2.4-75.6C588.8,308.3,589.5,285.4,590.2,262.4z"/>
	<path class="st0" d="M608.2,495c0-6.4-0.2-12.9,0-19.3c0.5-17.8,1.3-35.6,1.9-53.5c0.8-24.6,1.6-49.2,2.4-73.8
		c0.6-18,1.2-36,1.7-54.1c0.2-6.9,0.3-13.7,0.3-20.6c0-1-0.5-2.6-1.3-3c-3.5-1.9-7.3-3.5-11.5-5.5c1.7,77,3.4,153.3,5.1,229.7
		C607.4,495,607.8,495,608.2,495z"/>
	<path class="st0" d="M627,324.1c0.6,20.8,1.2,41.6,1.7,62.4c0.7,25.9,1.3,51.8,1.9,77.7c0.3,10.7,0.6,21.3,0.8,32
		c0.4-2.7,0.7-5.3,0.8-8c0.9-26.7,1.7-53.4,2.5-80c0.6-21.2,1.3-42.4,1.9-63.6c0.2-7.9,0.6-15.7,0.9-23.6c0.4-12.3,0.7-24.7,0.9-37
		c0-0.8-0.6-2-1.3-2.3c-3.5-1.8-7.1-3.3-11.3-5.2c0,2.2,0,3.9,0,5.6C626.2,296,626.6,310,627,324.1z"/>
	<path class="st0" d="M763.7,349.6c0.5-13.6,1-27.3,1.4-40.9c0.5-16.3,0.8-32.7,1.3-49c0.7-21.2,1.5-42.4,2.2-63.6
		c0.5-16.2,1-32.5,1.4-48.7c0-0.9-0.4-2.3-1.1-2.7c-3.6-2.2-7.4-4.1-11.7-6.4c1.9,70.9,3.8,141.1,5.7,211.4
		C763.2,349.6,763.5,349.6,763.7,349.6z"/>
	<path class="st0" d="M735.7,201.3c0.6,21.5,1.2,43,1.8,64.5c0.7,27.2,1.3,54.4,2,81.6c0,1.1,0,2.3,0,3.4c0.3,0,0.6,0,0.9-0.1
		c0.1-1.1,0.1-2.1,0.2-3.2c0.3-13.3,0.7-26.7,1-40c0.4-18.9,0.6-37.9,0.9-56.8c0.2-9.6,0.4-19.1,0.6-28.7
		c0.8-29.9,1.6-59.8,2.3-89.7c0-0.9-0.6-2.1-1.3-2.5c-3.3-2.1-6.7-3.9-10.6-6.1c0,2.9-0.1,5.3,0,7.7
		C734.2,154.7,735,178,735.7,201.3z"/>
	<path class="st0" d="M661.9,292.3c-3.4-1.8-6.9-3.3-11.2-5.4c1.8,70.2,3.5,139.8,5.3,209.3c0.5-1.3,0.8-2.7,0.8-4
		c0.3-11.4,0.5-22.7,0.7-34.1c0.2-7.5,0.4-14.9,0.7-22.4c0.7-17.8,1.6-35.6,2.2-53.4c0.4-10.7,0.4-21.3,0.7-32
		c0.2-7.8,0.7-15.5,0.9-23.3c0.3-10.9,0.6-21.7,0.7-32.6C662.8,293.8,662.4,292.6,661.9,292.3z"/>
	<path class="st0" d="M680.5,499c0.3-5.1,0.6-10.1,0.7-15.2c0.8-24,1.7-48,2.5-72c0.5-15.6,0.9-31.3,1.3-46.9
		c0.2-7.3,0.6-14.5,0.8-21.8c0.4-12.7,0.7-25.5,0.9-38.2c0-0.8-0.4-1.9-0.9-2.2c-3.5-1.8-7.1-3.4-11.3-5.3
		c2,67.6,3.9,134.6,5.8,201.6C680.4,498.9,680.5,499,680.5,499z"/>
	<path class="st0" d="M787,342.5c0.2-4.2,0.5-8.3,0.7-12.5c0.7-17.5,1.3-35,1.9-52.5c0.6-19,1.2-38,1.8-57
		c0.6-19.2,1.2-38.4,1.8-57.6c0-0.8-0.1-2.1-0.6-2.4c-3.8-2.4-7.7-4.6-12-7.2c2,63.6,3.9,126.5,5.9,189.4
		C786.7,342.5,786.9,342.5,787,342.5z"/>
	<path class="st0" d="M861.4,423.2c0.5,15.9,0.8,31.8,1.4,47.6c0.3,8.1,0.9,16.3,1.3,24.4c0.3,0,0.6,0,0.9,0
		c2.2-55.7,4.3-111.4,6.5-167.5c-2.7,1.1-4.7,1.9-6.7,2.7c-6.2,2.8-6.2,2.8-6,9.3C859.7,367.6,860.6,395.4,861.4,423.2z"/>
	<path class="st0" d="M704.6,496.5c0.6-17.2,1.2-34.4,1.8-51.6c0.7-19.6,1.3-39.2,1.9-58.8c0.2-7.6,0.5-15.1,0.8-22.7
		c0.5-15.9,1-31.8,1.5-47.8c0-0.9-0.6-2.3-1.3-2.6c-3.3-1.7-6.8-3.2-10.5-4.9c1.7,63.6,3.3,126.7,5,189.9
		C704.6,497.4,704.6,496.9,704.6,496.5z"/>
	<path class="st0" d="M834.7,346.3c0.5,11.7,0.7,23.5,1.1,35.2c0.7,19.8,1.6,39.6,2.3,59.4c0.5,13.9,0.8,27.9,1.3,41.9
		c0.1,3.8,0.5,7.6,0.8,11.4c0.3,0,0.6,0,0.9,0c2.2-52.3,4.4-104.6,6.6-157.2c-3.8,1.8-7.1,3.6-10.6,4.9
		C834.9,342.8,834.6,344.2,834.7,346.3z"/>
	<path class="st0" d="M810.4,338c0.8-16.9,1.8-33.8,2.5-50.7c0.6-14.8,0.9-29.7,1.4-44.5c0.3-8.3,0.6-16.5,0.9-24.8
		c0.5-13.6,0.9-27.3,1.3-40.9c0-0.9-0.2-2.2-0.8-2.6c-3.4-2.3-7-4.3-11.3-6.9c1.8,57.3,3.5,113.9,5.2,170.4
		C809.9,338,810.2,338,810.4,338z"/>
	<path class="st0" d="M811.2,356.8c0.9,22.7,1.7,45.4,2.4,68.1c0.5,14,0.9,28.1,1.3,42.2c0.2,5.6,0.4,11.2,0.6,16.7
		c0.2,4.2,0.5,8.4,0.8,12.6c0.3,0,0.5,0,0.8,0c2.3-49.5,4.5-98.9,6.8-149c-3.8,1.8-6.7,3.6-9.9,4.8
		C811.4,353.1,811.1,354.5,811.2,356.8z"/>
	<path class="st0" d="M787.4,365.9c0.8,19.3,1.5,38.7,2.3,58c0.7,17.9,1.2,35.8,1.9,53.7c0.3,6.4,0.9,12.8,1.3,19.3
		c0.2,0,0.4,0,0.5,0c2.2-46.5,4.4-93,6.6-139.9c-3.6,1.6-6.7,3.2-9.9,4.4C787.7,362.3,787.3,363.6,787.4,365.9z"/>
	<path class="st0" d="M834.3,328.9c0.5-7.4,1.1-14.9,1.4-22.3c0.7-17.3,1.3-34.6,1.9-51.9c0.2-6.5,0.5-12.9,0.8-19.4
		c0.5-14.6,1.1-29.3,1.6-43.9c0-0.8-0.1-2-0.7-2.4c-3.4-2.2-6.8-4.2-10.9-6.6c1.8,49.4,3.6,97.9,5.4,146.5
		C833.9,328.9,834.1,328.9,834.3,328.9z"/>
	<path class="st0" d="M683,179.4c0.5,17.3,0.9,34.5,1.3,51.8c0.4,14.4,0.9,28.8,1.4,43.3c0.3,0,0.5,0,0.8,0
		c1.9-74.3,3.8-148.6,5.7-223.5c-4.3,2.4-8,4.5-11.7,6.8c-0.7,0.4-1.2,1.9-1.1,2.9c0.4,17.2,0.8,34.3,1.4,51.5
		C681.5,134.5,682.3,156.9,683,179.4z"/>
	<path class="st0" d="M707,179.9c0.3,21.4,0.6,42.8,0.9,64.1c0.3,15.1,0.7,30.1,1,45.2c0,1.2,0.1,2.4,0.2,3.6c0.3,0,0.6,0,0.9,0.1
		c0-1.3,0-2.6,0-3.9c0.7-30.7,1.3-61.4,2-92.1c0.5-24.3,1.1-48.6,1.8-72.9c0.7-26.3,1.5-52.6,2.2-78.9c0.1-2.7,0-5.3,0-8.7
		c-3.9,2.5-7.3,4.6-10.6,6.9c-0.7,0.5-1.3,1.9-1.3,2.9c0.7,33.7,1.5,67.5,2.3,101.2C706.6,158.3,706.8,169.1,707,179.9z"/>
	<path class="st0" d="M656.9,73.5c-0.5,0.3-0.6,1.7-0.6,2.5c0.6,20.2,1.2,40.5,1.8,60.7c0.6,20,1.1,40,1.8,60.1
		c0.6,18.4,1.2,36.9,1.9,55.3c0.2,4.4,0.5,8.8,0.7,13.2c0.2,0,0.4,0,0.5,0.1c2-66.2,3.9-132.5,5.9-199.5
		C664.6,68.6,660.7,70.9,656.9,73.5z"/>
	<path class="st0" d="M635.1,155.6c0.5,14.8,0.8,29.7,1.4,44.5c0.7,16.9,1.7,33.8,2.5,50.7c0.3,0,0.5,0,0.8,0
		c1.7-56.5,3.5-113.1,5.2-170.4c-4.3,2.6-7.9,4.7-11.3,6.9c-0.6,0.4-0.8,1.7-0.8,2.6c0.4,13.6,0.8,27.3,1.3,40.9
		C634.5,139.1,634.9,147.3,635.1,155.6z"/>
	<path class="st0" d="M611.9,167.4c0.6,17.3,1.2,34.6,1.9,51.9c0.3,7.4,0.9,14.9,1.4,22.3c0.2,0,0.4-0.1,0.6-0.1
		c1.8-48.5,3.6-97.1,5.4-146.5c-4.1,2.4-7.5,4.4-10.9,6.6c-0.5,0.3-0.7,1.6-0.7,2.4c0.5,14.6,1,29.3,1.6,43.9
		C611.4,154.5,611.7,161,611.9,167.4z"/>
	<path class="st0" d="M763.9,374.9c0.5,11.8,0.8,23.7,1.2,35.5c0.8,21.9,1.6,43.8,2.5,65.8c0.3,7,0.9,14,1.3,21c0.2,0,0.4,0,0.5,0
		c2.2-43.3,4.5-86.6,6.7-130.5c-3.8,1.7-6.9,3.3-10.1,4.5C764.2,371.9,763.8,373.1,763.9,374.9z"/>
	<path class="st0" d="M740.6,384.3c0.4,9.5,0.8,19,1.2,28.6c0.6,14.1,1.2,28.3,1.8,42.4c0.4,10.4,0.8,20.8,1.3,31.2
		c0.2,4.2,0.5,8.4,0.7,12.6c0.1,0,0.3,0,0.4,0c2.1-40.6,4.1-81.2,6.2-122.5c-3.7,1.7-6.7,3.2-9.7,4.4
		C740.9,381.7,740.5,382.6,740.6,384.3z"/>
	<path class="st1" d="M560.4,672.1c-7.9-2.8-11.4-5.1-11.4-9.9c0-3.5,3-7.7,10.8-7.7c5.2,0,9.1,1.5,10.9,2.4l2-5.4
		c-2.6-1.3-6.8-2.5-12.7-2.5c-11.2,0-18.6,6-18.6,14c0,7.3,5.8,11.6,15.2,14.6c7.8,2.7,10.8,5.4,10.8,10.2c0,5.2-4.4,8.8-12,8.8
		c-5.1,0-10-1.5-13.3-3.4l-1.9,5.6c3.1,1.8,9.1,3.3,14.7,3.3c13.6,0,20.1-6.9,20.1-14.8C575,679.7,570.1,675.5,560.4,672.1z"/>
	<polygon class="st1" points="641.8,671.4 614,671.4 614,649.8 606.5,649.8 606.5,701.3 614,701.3 614,677.2 641.8,677.2 
		641.8,701.3 649.3,701.3 649.3,649.8 641.8,649.8 	"/>
	<path class="st1" d="M698.7,649.8l-19.6,51.5h7.7l6-16.2h20.4l6.1,16.2h7.9l-19.6-51.5H698.7z M694.4,679.9L700,665
		c1.1-3.1,2-6.3,2.9-9.3h0.2c0.9,3,1.7,6,3,9.4l5.6,14.8H694.4z"/>
	<path class="st1" d="M781.7,676.8v-0.2c6.1-1.8,10.8-6.3,10.8-13.2c0-4-1.6-7.5-4.5-9.8c-3.6-2.9-8.7-4.2-16.7-4.2
		c-5.1,0-10.5,0.4-14.3,1.1v50.9h7.4V679h7c6.7,0.2,9.8,2.9,11.5,10c1.6,6.4,2.9,10.9,3.8,12.3h7.7c-1.2-2-2.6-7-4.4-14.1
		C788.8,681.8,786.2,678.2,781.7,676.8z M772.2,674h-7.6v-18.8c1.2-0.3,3.8-0.6,7.3-0.6c7.9,0.1,13.2,3,13.2,9.6
		C785.1,670.1,780.1,674,772.2,674z"/>
	<polygon class="st1" points="831.8,677.2 854.2,677.2 854.2,671.7 831.8,671.7 831.8,655.4 855.5,655.4 855.5,649.8 824.4,649.8 
		824.4,701.3 856.8,701.3 856.8,695.8 831.8,695.8 	"/>
	<path class="st1" d="M905,672.1c-7.9-2.8-11.4-5.1-11.4-9.9c0-3.5,3-7.7,10.8-7.7c5.2,0,9.1,1.5,10.9,2.4l2.1-5.4
		c-2.6-1.3-6.8-2.5-12.7-2.5c-11.2,0-18.6,6-18.6,14c0,7.3,5.8,11.6,15.2,14.6c7.8,2.7,10.8,5.4,10.8,10.2c0,5.2-4.4,8.8-12,8.8
		c-5.1,0-10-1.5-13.3-3.4l-1.9,5.6c3.1,1.8,9.1,3.3,14.7,3.3c13.6,0,20.2-6.9,20.2-14.8C919.7,679.7,914.7,675.5,905,672.1z"/>
</g>
<g>
	<linearGradient id="SVGID_1_" gradientUnits="userSpaceOnUse" x1="1478.682" y1="134.8823" x2="1748.3533" y2="134.8823">
		<stop  offset="0" style="stop-color:#009345"/>
		<stop  offset="0.5075" style="stop-color:#1EA448"/>
		<stop  offset="1" style="stop-color:#37B34A"/>
	</linearGradient>
	<path class="st2" d="M1743.7,102l-209.1,1.1l-19.4,0.1c-13.4,1.8-25.5,7.1-31.8,16.4c-2.3,3.4-3.8,7.2-4.7,11.4v36.9h230.9
		l19.6-21.4l19.2-21l-2.6-2.4l-13.4-12.2l-4.3-3.9l-0.1-0.1l0.7-0.1L1743.7,102z"/>
	<path class="st3" d="M1544.6,443.4C1544.6,443.5,1544.6,443.5,1544.6,443.4c-0.5,0-0.9,0-1.3,0H1544.6z"/>
	
		<linearGradient id="SVGID_00000075869763257862818570000010616864127388495288_" gradientUnits="userSpaceOnUse" x1="1507.6147" y1="505.9299" x2="1595.2548" y2="421.197">
		<stop  offset="0" style="stop-color:#009345"/>
		<stop  offset="0.247" style="stop-color:#069646"/>
		<stop  offset="0.5638" style="stop-color:#16A047"/>
		<stop  offset="0.9174" style="stop-color:#30AF49"/>
		<stop  offset="1" style="stop-color:#37B34A"/>
	</linearGradient>
	<path style="fill:url(#SVGID_00000075869763257862818570000010616864127388495288_);" d="M1603.3,472.1v18.5h-109.5
		c-2-0.2-4.9-0.6-8.2-2.1c-3.7-1.7-6.3-3.9-7.7-5.4c-1.4-1.2-5.4-4.6-7.9-10.2c1-3.9,2.7-8.1,5.5-12.1c7.1-10.4,18.9-16.7,31.8-17.4
		h69.1v28.7H1603.3z"/>
	<rect x="1667.7" y="443.4" class="st3" width="6.4" height="14.7"/>
	<rect x="1641.1" y="472.1" class="st3" width="7" height="18.5"/>
	
		<linearGradient id="SVGID_00000061441666354028222410000012071742675663601556_" gradientUnits="userSpaceOnUse" x1="1600.3823" y1="378.3842" x2="1673.4788" y2="337.7952">
		<stop  offset="5.469969e-03" style="stop-color:#009345"/>
		<stop  offset="1" style="stop-color:#37B34A"/>
	</linearGradient>
	<polygon style="fill:url(#SVGID_00000061441666354028222410000012071742675663601556_);" points="1674.1,257.7 1674.1,458.1 
		1648.1,458.1 1648.1,506.7 1617,506.7 1617,458.1 1590.5,458.1 1590.5,257.7 1617,257.7 1617,214.3 1648.1,214.3 1648.1,257.7 	"/>
	
		<linearGradient id="SVGID_00000107583544528187486460000006863951130857882291_" gradientUnits="userSpaceOnUse" x1="1742.9105" y1="453.6147" x2="1784.6173" y2="408.9981">
		<stop  offset="0" style="stop-color:#009345"/>
		<stop  offset="1" style="stop-color:#37B34A"/>
	</linearGradient>
	<path style="fill:url(#SVGID_00000107583544528187486460000006863951130857882291_);" d="M1793.1,396.6v62.1
		c-0.3,5.1-1.6,9.9-4.4,14c-6.5,9.8-20.5,15.7-35.8,17.5H1732v-93.6H1793.1z"/>
	
		<linearGradient id="SVGID_00000106857906599909402110000002338287972913090724_" gradientUnits="userSpaceOnUse" x1="1494.8767" y1="149.0811" x2="1549.9216" y2="174.0195">
		<stop  offset="0" style="stop-color:#009345"/>
		<stop  offset="1" style="stop-color:#37B34A"/>
	</linearGradient>
	<path style="fill:url(#SVGID_00000106857906599909402110000002338287972913090724_);" d="M1539.1,103.1
		c-2.1,1.8-14.2,12.7-14.9,30.9c-0.8,20.1,13,32.6,14.9,34.2c0,13.2,0,26.3,0,39.5c-20.1,0-40.3,0-60.4,0v-76.9
		c0.9-4.2,2.4-8,4.7-11.4c6.3-9.3,18.3-14.7,31.6-16.4H1539.1z"/>
	
		<linearGradient id="SVGID_00000036247953601176682860000011127896865363890869_" gradientUnits="userSpaceOnUse" x1="1679.8385" y1="259.325" x2="1790.8556" y2="135.6139">
		<stop  offset="5.469969e-03" style="stop-color:#009345"/>
		<stop  offset="0.2637" style="stop-color:#129D47"/>
		<stop  offset="0.7274" style="stop-color:#2DAD49"/>
		<stop  offset="1" style="stop-color:#37B34A"/>
	</linearGradient>
	<polygon style="fill:url(#SVGID_00000036247953601176682860000011127896865363890869_);" points="1829.8,95.1 1828.9,102.3 
		1822.1,155.1 1820,171.8 1819.9,172.8 1819.5,172.4 1804.4,158.6 1688.1,286.4 1688.1,242.7 1663.5,242.7 1769.4,126.5 1751.4,110 
		1821.9,96.6 	"/>
	
		<linearGradient id="SVGID_00000125593235393909698240000009598397275121926280_" gradientUnits="userSpaceOnUse" x1="1517.8173" y1="453.1324" x2="1587.5269" y2="369.6094">
		<stop  offset="5.469969e-03" style="stop-color:#009345"/>
		<stop  offset="1" style="stop-color:#37B34A"/>
	</linearGradient>
	<path style="fill:url(#SVGID_00000125593235393909698240000009598397275121926280_);" d="M1576.4,331.9v73.2l-13.5,14.8
		c-7.4,7.9-14.8,15.7-22.2,23.6c-2,2.1-10.3,11.6-10.2,25.9c0.1,10.8,5,18.5,7.1,21.3h-43.8c-2-0.2-4.9-0.6-8.2-2.1
		c-3.7-1.7-6.3-3.9-7.7-5.4c-1.4-1.2-5.4-4.6-7.9-10.2c-0.9-1.9-1.6-4-2-6.3c-2.5-14.4,8.1-24.7,9-25.5l39.1-43L1576.4,331.9z"/>
	
		<linearGradient id="SVGID_00000076592303162035552390000007106784948843085755_" gradientUnits="userSpaceOnUse" x1="1698.5057" y1="501.4623" x2="1788.1021" y2="404.9512">
		<stop  offset="0" style="stop-color:#009345"/>
		<stop  offset="1" style="stop-color:#37B34A"/>
	</linearGradient>
	<path style="fill:url(#SVGID_00000076592303162035552390000007106784948843085755_);" d="M1793.1,443.4v15.6
		c-0.3,5.1-1.6,9.9-4.4,14c-6.5,9.8-20.5,15.7-35.8,17.5h-91.5v-18.5h26.6v-28.7h44c2.7,2.3,14.2,11.7,31.4,11.4
		c3.3-0.1,6.4-0.5,9.3-1.1C1783.6,451.2,1790.8,445.4,1793.1,443.4z"/>
</g>
<g>
	<text transform="matrix(1 0 0 1 1343.0352 649.5312)" class="st0 st11 st12">Trade</text>
	<text transform="matrix(1 0 0 1 1663.1191 650.9023)" class="st13 st11 st14">Zanga</text>
</g>
</svg>
