<svg xmlns="http://www.w3.org/2000/svg" viewBox="0 0 372.15 308.37"><defs><style>.cls-1,.cls-2,.cls-3{fill:#fff;}.cls-2{stroke:#fff;stroke-miterlimit:10;stroke-width:0.5px;}.cls-3{opacity:0;}</style></defs><g id="Layer_2" data-name="Layer 2"><g id="Layer_1-2" data-name="Layer 1"><path class="cls-1" d="M177.17,223.5a31.92,31.92,0,0,1,.7,4.26c.08,4.89.06,9.78,0,14.67,0,2.2.51,4.52-1.21,6.44H183a10.15,10.15,0,0,1-.89-2.81c-.09-5.26,0-10.52,0-15.94.25.16.35.2.43.27q9.21,8.87,18.42,17.74c.33.32.73.77,1.12.79,1.65.09,3.31,0,5,0,0-6.77,0-13.4,0-20,0-1.85,0-3.67,1.29-5.32H202.1a18.64,18.64,0,0,1,.82,3.62c.09,4.67,0,9.34,0,14a8.29,8.29,0,0,1-.1.93c-.52-.48-.91-.81-1.28-1.17-5.29-5.2-10.63-10.34-15.83-15.62a5.29,5.29,0,0,0-4.63-1.9A34.92,34.92,0,0,1,177.17,223.5Z"/><path class="cls-1" d="M101.5,230.11c.34.28.51.39.66.53l8,7.82q5,4.8,9.92,9.58c.38.37.87.85,1.33.88,1.65.11,3.31,0,5,0v-.87c0-6.52,0-13.05,0-19.57,0-1.74,0-3.46,1.27-4.91h-6.29a15.21,15.21,0,0,1,.9,3.42c.1,4.89,0,9.79,0,14.68,0,.13,0,.26-.06.55-.3-.28-.48-.44-.65-.61q-8.77-8.61-17.54-17.21a2.79,2.79,0,0,0-1.58-.87c-2.06-.11-4.13,0-6.48,0,1.39,1.55,1.36,3.22,1.36,4.88,0,4.86,0,9.71,0,14.57,0,2,.27,4.15-1.33,5.9h6.15a19.44,19.44,0,0,1-.77-3.58c-.09-4.67,0-9.34,0-14Z"/><path class="cls-1" d="M284.68,245.2c-3.89,0-7.78,0-11.67,0h-1.24v-7.28h14.31V234H271.75v-6.83c2.79,0,5.53-.06,8.26,0,3.65.1,7.38-.36,10.72,1.6v-5.31H264.22a5.53,5.53,0,0,1,1.48,4.22c0,4.67.05,9.35,0,14,0,2.41.67,5-1.25,7.15h27v-5.32C289.33,245.06,287,245.21,284.68,245.2Z"/><path class="cls-1" d="M134.45,227.87c0,4.71,0,9.42,0,14.12,0,2.35.51,4.81-1.24,6.91h8.51a8.58,8.58,0,0,1-1-2.44c-.11-2.84,0-5.68,0-8.52h13.9V234H140.7V227.3c3.46,0,6.82-.05,10.19,0,2.57.05,5.16.12,7.49,1.7V223.6H133.11A6.12,6.12,0,0,1,134.45,227.87Z"/><path class="cls-1" d="M227.94,229c4.09-2.36,8.5-1.67,12.91-1.82,0,.6.08,1.11.08,1.62,0,4.19.06,8.37,0,12.56,0,2.56.65,5.26-1.37,7.56h8.25a16.89,16.89,0,0,1-.81-3.54c-.09-5.82-.05-11.63,0-17.45a4.24,4.24,0,0,1,.16-.77c4.26.18,8.56-.46,12.5,1.79v-5.39H227.94Z"/><path class="cls-1" d="M81.32,219.48a31.32,31.32,0,0,1,.59,4.21c.06,6.85,0,13.71,0,20.56,0,1.62.12,3.25-1.22,4.62h8a17.35,17.35,0,0,1-.8-3.58c-.08-6.15-.07-12.3,0-18.45,0-2.5-.53-5.11,1.24-7.36Z"/><path class="cls-1" d="M171.14,248.94a6,6,0,0,1-1.3-4.41V228a5.83,5.83,0,0,1,1.34-4.34h-8.42c1.39,1.72,1.28,3.59,1.27,5.44,0,4.44,0,8.89,0,13.34,0,2.2.52,4.52-1.17,6.54Z"/><path class="cls-1" d="M222.65,248.92c-1.22-1.34-1.25-2.87-1.25-4.43,0-4.7,0-9.41,0-14.11,0-2.28-.48-4.65,1.19-6.81h-8.14c1.46,1.94,1.31,4.06,1.31,6.16q0,7.05,0,14.1c0,1.77.09,3.54-1.34,5.09Z"/><path class="cls-1" d="M134.1,114.41a1.22,1.22,0,0,0-.47-1c-1.4-.74-2.84-1.39-4.48-2.17,0,1.27,0,2.3,0,3.33.12,4.77.27,9.55.38,14.32q.25,10.89.48,21.78c.07,3.3.16,6.59.25,9.89q.42,14.83.83,29.66l.27,9.78h.38c0-2.18-.05-4.37,0-6.55q.31-12.66.66-25.33.42-14.05.89-28.1Q133.71,127.25,134.1,114.41Z"/><path class="cls-1" d="M140.81,200.93c0-2.39-.06-4.79,0-7.18.2-6.63.46-13.25.68-19.88q.47-13.71.91-27.43.33-10,.65-20.1c.07-2.56.12-5.11.12-7.67a1.45,1.45,0,0,0-.47-1.11c-1.32-.71-2.7-1.3-4.27-2,.63,28.65,1.26,57,1.89,85.4Z"/><path class="cls-1" d="M147.78,137.37c.21,7.73.44,15.47.64,23.21q.38,14.43.7,28.88.15,5.94.31,11.89a24.84,24.84,0,0,0,.29-3q.48-14.88.93-29.76.36-11.84.71-23.66c.09-2.92.24-5.84.32-8.77q.21-6.88.33-13.78a1.1,1.1,0,0,0-.48-.85c-1.31-.66-2.66-1.24-4.18-1.93,0,.83,0,1.45,0,2.08Q147.56,129.53,147.78,137.37Z"/><path class="cls-1" d="M198.64,146.86c.17-5.08.36-10.15.51-15.22.18-6.08.3-12.15.5-18.23.25-7.88.57-15.77.83-23.65q.3-9.06.51-18.11a1.31,1.31,0,0,0-.42-1c-1.35-.81-2.75-1.53-4.34-2.4.71,26.36,1.41,52.49,2.11,78.62Z"/><path class="cls-1" d="M188.22,91.72q.36,12,.66,24,.39,15.16.74,30.33c0,.43,0,.86,0,1.28l.33,0c0-.4.05-.8.06-1.2.12-5,.27-9.92.37-14.89.14-7,.22-14.08.35-21.12.06-3.56.15-7.11.24-10.67q.42-16.67.85-33.34a1.29,1.29,0,0,0-.49-1c-1.21-.76-2.48-1.44-3.93-2.27,0,1.1,0,2,0,2.86C187.67,74.39,188,83.05,188.22,91.72Z"/><path class="cls-1" d="M160.75,125.55c-1.27-.66-2.57-1.25-4.16-2,.66,26.12,1.32,52,2,77.83a4.1,4.1,0,0,0,.31-1.49c.1-4.22.18-8.44.28-12.66.06-2.78.13-5.56.24-8.33.27-6.62.58-13.24.82-19.87.14-4,.16-7.92.27-11.88.09-2.89.25-5.78.34-8.67.12-4,.2-8.07.28-12.11A1.06,1.06,0,0,0,160.75,125.55Z"/><path class="cls-1" d="M167.7,202.42c.09-1.88.21-3.77.28-5.65q.47-13.4.91-26.77c.18-5.82.31-11.64.48-17.45.08-2.7.21-5.41.29-8.11q.19-7.11.35-14.22a1.05,1.05,0,0,0-.35-.83c-1.3-.66-2.64-1.25-4.2-2,.73,25.13,1.45,50.05,2.17,75Z"/><path class="cls-1" d="M207.31,144.21c.08-1.55.19-3.1.25-4.65q.38-9.78.7-19.54c.24-7.07.44-14.14.66-21.21s.45-14.29.67-21.44c0-.3,0-.76-.23-.89-1.4-.9-2.85-1.73-4.45-2.68.74,23.66,1.47,47,2.2,70.43Z"/><path class="cls-1" d="M235,174.25c.17,5.9.31,11.8.51,17.71.1,3,.32,6,.49,9.07h.35c.8-20.71,1.6-41.42,2.41-62.31-1,.41-1.76.7-2.49,1-2.3,1-2.29,1-2.21,3.47Q234.5,158.73,235,174.25Z"/><path class="cls-1" d="M176.66,201.47q.34-9.6.67-19.2.38-11,.72-21.88c.09-2.81.2-5.62.29-8.44q.28-8.88.54-17.76a1.25,1.25,0,0,0-.48-1c-1.23-.65-2.51-1.19-3.89-1.83.62,23.65,1.24,47.13,1.86,70.62A.58.58,0,0,0,176.66,201.47Z"/><path class="cls-1" d="M225,145.62c.17,4.37.27,8.74.43,13.11.27,7.36.59,14.73.86,22.1.18,5.18.31,10.37.49,15.56.05,1.41.2,2.82.3,4.23h.34c.82-19.44,1.64-38.88,2.47-58.45-1.42.66-2.64,1.33-3.93,1.82C225.09,144.33,225,144.83,225,145.62Z"/><path class="cls-1" d="M216,142.54c.32-6.28.67-12.56.93-18.84.23-5.51.34-11,.52-16.55.1-3.07.24-6.14.34-9.21q.27-7.6.48-15.21c0-.33-.07-.82-.3-1-1.27-.85-2.61-1.62-4.2-2.59.65,21.33,1.3,42.35,1.94,63.37Z"/><path class="cls-1" d="M216.27,149.52q.48,12.67.9,25.34c.18,5.22.32,10.45.49,15.67.06,2.08.13,4.16.23,6.23.08,1.57.2,3.13.3,4.7h.3c.84-18.4,1.68-36.8,2.52-55.42a40.11,40.11,0,0,1-3.69,1.77C216.38,148.15,216.24,148.69,216.27,149.52Z"/><path class="cls-1" d="M207.44,152.93c.31,7.19.57,14.39.84,21.58.25,6.66.45,13.31.72,20,.1,2.39.33,4.78.5,7.16h.2c.82-17.29,1.63-34.57,2.45-52-1.35.61-2.48,1.21-3.68,1.63C207.56,151.57,207.4,152.08,207.44,152.93Z"/><path class="cls-1" d="M224.87,139.18c.18-2.77.4-5.53.52-8.3.26-6.44.47-12.88.7-19.32.09-2.4.19-4.81.28-7.21q.3-8.16.58-16.33c0-.3,0-.76-.25-.89-1.25-.81-2.54-1.56-4-2.46.68,18.36,1.34,36.41,2,54.46Z"/><path class="cls-1" d="M168.62,83.55c.2,6.42.32,12.85.5,19.27.15,5.36.34,10.73.51,16.09h.3c.7-27.62,1.4-55.25,2.11-83.11-1.59.91-3,1.67-4.34,2.53a1.39,1.39,0,0,0-.42,1.06q.21,9.57.51,19.14C168.05,66.88,168.37,75.21,168.62,83.55Z"/><path class="cls-1" d="M177.54,83.75c.12,8,.21,15.9.35,23.85.09,5.61.24,11.21.37,16.81,0,.45,0,.91.06,1.36l.33,0c0-.48,0-1,0-1.44q.36-17.13.73-34.25.31-13.56.66-27.1c.26-9.79.56-19.57.83-29.35,0-1,0-2,0-3.23-1.45.94-2.72,1.71-3.93,2.57a1.48,1.48,0,0,0-.49,1.07q.39,18.82.85,37.64C177.39,75.72,177.48,79.74,177.54,83.75Z"/><path class="cls-1" d="M158.91,44.18c-.19.13-.24.62-.23.94.21,7.52.45,15.05.67,22.57s.42,14.89.65,22.34q.33,10.29.71,20.58c0,1.63.16,3.26.25,4.9l.2,0c.73-24.63,1.46-49.26,2.19-74.17C161.76,42.36,160.31,43.23,158.91,44.18Z"/><path class="cls-1" d="M150.82,74.71c.18,5.51.29,11,.51,16.54.26,6.28.62,12.56.94,18.84h.28c.65-21,1.29-42,1.95-63.37-1.6,1-2.93,1.73-4.21,2.58-.22.15-.3.65-.29,1q.21,7.6.47,15.21C150.58,68.57,150.72,71.64,150.82,74.71Z"/><path class="cls-1" d="M142.18,79.12c.23,6.44.44,12.88.7,19.32.11,2.76.34,5.53.52,8.29l.22,0c.66-18.06,1.32-36.11,2-54.47-1.51.91-2.81,1.65-4.05,2.47-.2.13-.26.59-.25.89q.27,8.16.58,16.32C142,74.31,142.09,76.71,142.18,79.12Z"/><path class="cls-1" d="M198.7,156.27c.17,4.39.29,8.79.45,13.19q.45,12.24.95,24.46c.1,2.61.32,5.21.49,7.82h.2c.83-16.1,1.67-32.2,2.51-48.54-1.43.64-2.57,1.21-3.76,1.67A1.21,1.21,0,0,0,198.7,156.27Z"/><path class="cls-1" d="M190,159.75c.17,3.54.29,7.08.44,10.62l.69,15.77c.16,3.86.31,7.72.49,11.58.07,1.57.18,3.13.27,4.69h.17c.77-15.11,1.54-30.21,2.32-45.54-1.37.63-2.48,1.19-3.62,1.65A1,1,0,0,0,190,159.75Z"/><path class="cls-2" d="M123,266.8c-3-1-4.26-1.91-4.26-3.7,0-1.31,1.11-2.87,4-2.87a9.2,9.2,0,0,1,4.07.91l.76-2a10.55,10.55,0,0,0-4.73-.94c-4.16,0-6.92,2.22-6.92,5.2,0,2.7,2.16,4.33,5.65,5.43,2.89,1,4,2,4,3.82s-1.65,3.27-4.48,3.27a10.69,10.69,0,0,1-5-1.25l-.7,2.07a12.15,12.15,0,0,0,5.46,1.22c5,0,7.5-2.55,7.5-5.51S126.63,268.05,123,266.8Z"/><polygon class="cls-2" points="153.29 266.51 142.94 266.51 142.94 258.49 140.18 258.49 140.18 277.66 142.94 277.66 142.94 268.67 153.29 268.67 153.29 277.66 156.09 277.66 156.09 258.49 153.29 258.49 153.29 266.51"/><path class="cls-2" d="M174.47,258.49l-7.27,19.17h2.86l2.22-6h7.59l2.28,6h3l-7.31-19.17Zm-1.62,11.21,2.1-5.55c.41-1.17.76-2.33,1.08-3.47h.06c.32,1.11.63,2.25,1.11,3.5l2.1,5.52Z"/><path class="cls-2" d="M205.33,268.53v-.09c2.25-.68,4-2.36,4-4.89a4.55,4.55,0,0,0-1.68-3.64c-1.33-1.08-3.24-1.56-6.19-1.56a31.67,31.67,0,0,0-5.31.4v18.91H199v-8.31h2.6c2.51.09,3.65,1.09,4.29,3.73a22.58,22.58,0,0,0,1.43,4.58h2.85a28.71,28.71,0,0,1-1.65-5.26C208,270.41,207,269,205.33,268.53Zm-3.56-1H199v-7a12.75,12.75,0,0,1,2.73-.23c2.92,0,4.92,1.11,4.92,3.59C206.6,266,204.73,267.48,201.77,267.48Z"/><polygon class="cls-2" points="223.97 268.67 232.28 268.67 232.28 266.62 223.97 266.62 223.97 260.57 232.76 260.57 232.76 258.49 221.2 258.49 221.2 277.66 233.24 277.66 233.24 275.58 223.97 275.58 223.97 268.67"/><path class="cls-2" d="M251.17,266.8c-2.95-1-4.25-1.91-4.25-3.7,0-1.31,1.11-2.87,4-2.87a9.11,9.11,0,0,1,4.06.91l.77-2a10.58,10.58,0,0,0-4.73-.94c-4.16,0-6.93,2.22-6.93,5.2,0,2.7,2.16,4.33,5.66,5.43,2.88,1,4,2,4,3.82s-1.65,3.27-4.48,3.27a10.69,10.69,0,0,1-5-1.25l-.7,2.07a12.12,12.12,0,0,0,5.46,1.22c5.05,0,7.49-2.55,7.49-5.51S254.79,268.05,251.17,266.8Z"/><circle class="cls-3" cx="10.19" cy="10.19" r="10.19"/><circle class="cls-3" cx="361.96" cy="10.19" r="10.19"/><circle class="cls-3" cx="361.96" cy="298.18" r="10.19"/><circle class="cls-3" cx="11.86" cy="298.18" r="10.19"/></g></g></svg>