<svg id="Layer_1" data-name="Layer 1" xmlns="http://www.w3.org/2000/svg" xmlns:xlink="http://www.w3.org/1999/xlink" viewBox="0 0 2377.3 769"><defs><style>.cls-1,.cls-12,.cls-2{fill:#fff;}.cls-2{stroke:#fff;stroke-miterlimit:10;stroke-width:0.5px;}.cls-3{fill:url(#linear-gradient);}.cls-4{fill:#00a551;}.cls-5{fill:url(#linear-gradient-2);}.cls-6{fill:url(#linear-gradient-3);}.cls-7{fill:url(#linear-gradient-4);}.cls-8{fill:url(#linear-gradient-5);}.cls-9{fill:url(#linear-gradient-6);}.cls-10{fill:url(#linear-gradient-7);}.cls-11{fill:url(#linear-gradient-8);}.cls-12{font-size:124.48px;}.cls-12,.cls-13{font-family:ErasITC-Medium, Eras Medium ITC;font-weight:500;}.cls-13{font-size:120.7px;fill:#009345;}</style><linearGradient id="linear-gradient" x1="1459.68" y1="134.88" x2="1729.35" y2="134.88" gradientUnits="userSpaceOnUse"><stop offset="0" stop-color="#009345"/><stop offset="0.51" stop-color="#1ea448"/><stop offset="1" stop-color="#37b34a"/></linearGradient><linearGradient id="linear-gradient-2" x1="1488.61" y1="505.93" x2="1576.25" y2="421.2" gradientUnits="userSpaceOnUse"><stop offset="0" stop-color="#009345"/><stop offset="0.25" stop-color="#069646"/><stop offset="0.56" stop-color="#16a047"/><stop offset="0.92" stop-color="#30af49"/><stop offset="1" stop-color="#37b34a"/></linearGradient><linearGradient id="linear-gradient-3" x1="1581.38" y1="378.38" x2="1654.48" y2="337.8" gradientUnits="userSpaceOnUse"><stop offset="0.01" stop-color="#009345"/><stop offset="1" stop-color="#37b34a"/></linearGradient><linearGradient id="linear-gradient-4" x1="1723.91" y1="453.61" x2="1765.62" y2="409" gradientUnits="userSpaceOnUse"><stop offset="0" stop-color="#009345"/><stop offset="1" stop-color="#37b34a"/></linearGradient><linearGradient id="linear-gradient-5" x1="1475.88" y1="149.08" x2="1530.92" y2="174.02" xlink:href="#linear-gradient-4"/><linearGradient id="linear-gradient-6" x1="1660.84" y1="259.32" x2="1771.86" y2="135.61" gradientUnits="userSpaceOnUse"><stop offset="0.01" stop-color="#009345"/><stop offset="0.26" stop-color="#129d47"/><stop offset="0.73" stop-color="#2dad49"/><stop offset="1" stop-color="#37b34a"/></linearGradient><linearGradient id="linear-gradient-7" x1="1498.82" y1="453.13" x2="1568.53" y2="369.61" xlink:href="#linear-gradient-3"/><linearGradient id="linear-gradient-8" x1="1679.51" y1="501.46" x2="1769.1" y2="404.95" xlink:href="#linear-gradient-4"/></defs><rect class="cls-1" x="1193.6" y="42.9" width="9.2" height="680.2"/><path class="cls-1" d="M706,555.71c.72,4.18,1.82,7.8,1.88,11.43.21,13.16.16,26.32,0,39.47-.06,5.92,1.38,12.16-3.24,17.31h16.94c-.86-2.58-2.37-5-2.41-7.55-.23-14.14-.11-28.28-.11-42.87a9,9,0,0,1,1.16.72q24.76,23.85,49.53,47.7c.89.86,2,2.09,3,2.15,4.43.24,8.88.1,13.3.1,0-18.22,0-36,0-53.88,0-5-.06-9.9,3.48-14.33H773.05c.78,3.32,2.12,6.52,2.19,9.74.26,12.55.11,25.12.1,37.68a24.27,24.27,0,0,1-.29,2.49c-1.39-1.27-2.44-2.18-3.43-3.15-14.23-14-28.58-27.81-42.58-42-3.65-3.71-7.24-5.65-12.45-5.09A94.6,94.6,0,0,1,706,555.71Z"/><path class="cls-1" d="M502.51,573.49c.93.74,1.39,1,1.77,1.42q10.85,10.5,21.67,21,13.31,12.9,26.66,25.76c1,1,2.34,2.29,3.59,2.37,4.44.29,8.91.12,13.53.12v-2.36c0-17.54.06-35.08,0-52.63,0-4.68,0-9.29,3.41-13.19h-16.9c.87,3.18,2.34,6.17,2.4,9.19.27,13.15.12,26.31.12,39.47a14.24,14.24,0,0,1-.18,1.48c-.79-.74-1.28-1.17-1.75-1.63q-23.57-23.16-47.16-46.28a7.59,7.59,0,0,0-4.24-2.36c-5.54-.27-11.11-.11-17.41-.11,3.72,4.16,3.63,8.66,3.65,13.12,0,13.06.07,26.12,0,39.18,0,5.47.73,11.15-3.57,15.86h16.55c-.73-3.25-2-6.42-2.07-9.62-.24-12.55-.1-25.12-.1-37.68Z"/><path class="cls-1" d="M995.12,614.05c-10.47-.06-20.94,0-31.41,0h-3.32V594.44h38.49V584.05H960.33V565.66c7.52,0,14.87-.15,22.22,0,9.8.26,19.85-1,28.82,4.31V555.72H940.1c3.34,3.51,4,7.29,4,11.36-.07,12.56.12,25.13-.09,37.69-.1,6.5,1.79,13.37-3.38,19.24h72.65V609.69C1007.6,613.69,1001.42,614.08,995.12,614.05Z"/><path class="cls-1" d="M591.11,567.45c-.07,12.66.07,25.32-.06,38-.06,6.31,1.36,12.91-3.34,18.57h22.88c-.92-2.25-2.48-4.38-2.57-6.57-.32-7.62-.12-15.26-.12-22.89h37.39V584H607.92V565.91c9.31,0,18.36-.12,27.4,0,6.92.13,13.9.31,20.14,4.56V556H587.52C590.56,559.57,591.13,563.38,591.11,567.45Z"/><path class="cls-1" d="M842.52,570.47c11-6.35,22.87-4.51,34.73-4.9.08,1.62.2,3,.21,4.36,0,11.25.16,22.51,0,33.76-.11,6.89,1.76,14.15-3.67,20.33h22.18c-.77-3.19-2.13-6.35-2.18-9.52-.23-15.63-.12-31.27-.1-46.91a11.34,11.34,0,0,1,.42-2.07c11.46.47,23-1.24,33.63,4.8V555.83H842.52Z"/><path class="cls-1" d="M448.24,544.9c.57,3.84,1.56,7.57,1.6,11.31.16,18.43.05,36.86.08,55.29,0,4.36.32,8.75-3.29,12.42h21.66c-.76-3.25-2.12-6.43-2.16-9.63-.22-16.53-.19-33.07-.07-49.61.05-6.73-1.42-13.74,3.34-19.78Z"/><path class="cls-1" d="M689.79,624.11c-3.31-3.7-3.48-7.77-3.49-11.87q0-22.28,0-44.55c0-4.1.31-8.12,3.59-11.68H667.25c3.73,4.65,3.44,9.65,3.42,14.63,0,12,.08,23.92,0,35.88-.07,5.93,1.38,12.14-3.16,17.59Z"/><path class="cls-1" d="M828.3,624c-3.29-3.58-3.37-7.71-3.36-11.9,0-12.65-.06-25.29.06-37.93.06-6.13-1.29-12.51,3.19-18.31h-21.9c4,5.19,3.53,10.9,3.53,16.54q0,19,.07,37.93c0,4.76.24,9.52-3.62,13.67Z"/><path class="cls-1" d="M590.19,262.35a3.32,3.32,0,0,0-1.27-2.57c-3.75-2-7.63-3.72-12-5.82,0,3.42-.06,6.18,0,8.94.32,12.84.71,25.68,1,38.53.46,19.52.85,39,1.29,58.56q.3,13.29.68,26.59,1.1,39.89,2.21,79.76.38,13.14.73,26.3h1c0-5.86-.12-11.73,0-17.6q.81-34.06,1.77-68.12c.74-25.19,1.59-50.37,2.4-75.56Q589.13,296.85,590.19,262.35Z"/><path class="cls-1" d="M608.24,495c0-6.44-.17-12.88,0-19.32.54-17.82,1.25-35.64,1.85-53.45q1.25-36.89,2.44-73.76.88-27,1.73-54.06.32-10.31.34-20.61c0-1-.51-2.59-1.26-3-3.55-1.9-7.27-3.48-11.5-5.45,1.71,77.05,3.41,153.35,5.11,229.66Z"/><path class="cls-1" d="M627,324.07c.58,20.81,1.2,41.62,1.74,62.42q1,38.83,1.89,77.66.39,16,.83,32a72.31,72.31,0,0,0,.78-8q1.27-40,2.49-80c.65-21.21,1.25-42.41,1.91-63.62.25-7.86.64-15.72.87-23.58q.54-18.52.88-37.05a3,3,0,0,0-1.29-2.29c-3.52-1.77-7.15-3.33-11.25-5.2,0,2.23,0,3.92,0,5.6Q626.38,303,627,324.07Z"/><path class="cls-1" d="M763.73,349.6c.47-13.64,1-27.28,1.38-40.93.49-16.33.81-32.67,1.34-49,.68-21.21,1.53-42.41,2.24-63.62q.79-24.33,1.37-48.68a3.53,3.53,0,0,0-1.14-2.71c-3.62-2.18-7.4-4.12-11.67-6.43,1.9,70.88,3.79,141.13,5.67,211.39Z"/><path class="cls-1" d="M735.73,201.32q1,32.28,1.78,64.54,1,40.78,2,81.58c0,1.14,0,2.29,0,3.43l.87-.05c0-1.08.13-2.15.16-3.23.34-13.34.74-26.69,1-40,.37-18.93.61-37.86.94-56.79q.25-14.35.65-28.7,1.15-44.82,2.29-89.65a3.44,3.44,0,0,0-1.32-2.55c-3.27-2.05-6.67-3.88-10.57-6.11,0,3-.07,5.32,0,7.68C734.24,154.73,735,178,735.73,201.32Z"/><path class="cls-1" d="M661.85,292.3c-3.41-1.77-6.91-3.35-11.19-5.37,1.78,70.24,3.54,139.77,5.31,209.29a11.49,11.49,0,0,0,.83-4c.27-11.35.46-22.71.73-34.06.18-7.47.37-14.93.67-22.4.7-17.81,1.55-35.61,2.2-53.42.38-10.65.43-21.31.73-32,.22-7.76.67-15.52.9-23.29q.48-16.27.75-32.57A2.81,2.81,0,0,0,661.85,292.3Z"/><path class="cls-1" d="M680.53,499c.26-5.07.57-10.13.75-15.2q1.26-36,2.45-72c.5-15.63.85-31.28,1.31-46.92.21-7.27.56-14.53.76-21.8q.56-19.12,1-38.25a2.83,2.83,0,0,0-.94-2.22c-3.5-1.78-7.1-3.37-11.3-5.31,2,67.58,3.9,134.59,5.84,201.6Z"/><path class="cls-1" d="M787,342.47c.24-4.17.53-8.33.69-12.5q1-26.28,1.89-52.55c.63-19,1.17-38,1.76-57q.9-28.81,1.8-57.64c0-.81-.1-2.06-.62-2.39-3.77-2.42-7.65-4.65-11.95-7.21,2,63.61,3.94,126.5,5.9,189.39Z"/><path class="cls-1" d="M861.4,423.25c.47,15.87.83,31.75,1.37,47.63.28,8.13.87,16.26,1.31,24.39l.94,0c2.16-55.68,4.31-111.37,6.49-167.53-2.7,1.1-4.72,1.86-6.68,2.73-6.2,2.75-6.16,2.76-6,9.34Q860.16,381.53,861.4,423.25Z"/><path class="cls-1" d="M704.63,496.46q.92-25.83,1.82-51.65,1-29.4,1.91-58.81c.25-7.57.54-15.13.78-22.7.52-15.92,1-31.85,1.46-47.78a3.43,3.43,0,0,0-1.29-2.64c-3.31-1.74-6.76-3.22-10.46-4.93,1.68,63.59,3.34,126.74,5,189.9A1.52,1.52,0,0,0,704.63,496.46Z"/><path class="cls-1" d="M834.65,346.28c.45,11.74.71,23.49,1.15,35.23.73,19.82,1.59,39.62,2.31,59.44.5,13.95.83,27.9,1.32,41.85.13,3.8.53,7.59.81,11.38h.92c2.21-52.27,4.42-104.55,6.64-157.18-3.81,1.79-7.09,3.59-10.57,4.89C834.85,342.79,834.57,344.16,834.65,346.28Z"/><path class="cls-1" d="M810.42,338c.85-16.89,1.81-33.77,2.51-50.66.61-14.82.91-29.66,1.39-44.49.26-8.26.65-16.51.93-24.77q.69-20.44,1.28-40.89c0-.9-.21-2.23-.8-2.63-3.44-2.29-7-4.35-11.31-6.95,1.76,57.35,3.5,113.88,5.23,170.41Z"/><path class="cls-1" d="M811.15,356.76q1.27,34.07,2.42,68.14c.48,14.05.86,28.1,1.3,42.15.18,5.58.38,11.16.64,16.74.21,4.22.53,8.43.81,12.64l.8,0c2.25-49.48,4.51-98.95,6.78-149-3.75,1.83-6.72,3.61-9.94,4.75C811.44,353.09,811.07,354.52,811.15,356.76Z"/><path class="cls-1" d="M787.4,365.94q1.25,29,2.26,58c.66,17.9,1.22,35.8,1.94,53.7.26,6.43.88,12.84,1.34,19.27l.54,0c2.19-46.49,4.38-93,6.6-139.94-3.64,1.64-6.68,3.25-9.9,4.38C787.71,362.26,787.31,363.64,787.4,365.94Z"/><path class="cls-1" d="M834.27,329c.47-7.44,1.09-14.87,1.39-22.31.71-17.31,1.26-34.63,1.89-51.95.24-6.47.52-12.94.76-19.41q.81-21.94,1.56-43.89c0-.81-.15-2-.68-2.4-3.35-2.19-6.83-4.19-10.88-6.62l5.37,146.45Z"/><path class="cls-1" d="M683,179.37c.53,17.26.85,34.54,1.34,51.81.4,14.42.91,28.84,1.38,43.26l.81,0c1.88-74.28,3.76-148.56,5.66-223.49-4.26,2.45-8,4.49-11.67,6.79a3.86,3.86,0,0,0-1.13,2.87q.6,25.74,1.37,51.47C681.47,134.53,682.33,156.94,683,179.37Z"/><path class="cls-1" d="M707,179.9c.34,21.38.58,42.76.94,64.13.26,15.08.66,30.14,1,45.21,0,1.22.1,2.43.16,3.65l.87.06c0-1.29,0-2.59,0-3.88q1-46,2-92.11.82-36.44,1.78-72.87,1-39.47,2.21-78.92c.08-2.67,0-5.34,0-8.67-3.91,2.51-7.31,4.58-10.57,6.9a4.07,4.07,0,0,0-1.32,2.88q1.07,50.61,2.29,101.23Q706.73,163.7,707,179.9Z"/><path class="cls-1" d="M656.89,73.49c-.51.35-.63,1.66-.61,2.52q.86,30.36,1.8,60.71c.59,20,1.13,40,1.76,60.06q.87,27.67,1.89,55.35c.16,4.39.45,8.78.68,13.17l.53.06c2-66.23,3.93-132.47,5.91-199.46C664.55,68.59,660.66,71,656.89,73.49Z"/><path class="cls-1" d="M635.14,155.58c.48,14.83.77,29.67,1.39,44.49.69,16.89,1.66,33.77,2.51,50.66l.77,0c1.73-56.53,3.47-113.06,5.23-170.41-4.29,2.6-7.87,4.66-11.31,7-.6.4-.83,1.73-.8,2.63q.57,20.44,1.28,40.89C634.49,139.07,634.88,147.32,635.14,155.58Z"/><path class="cls-1" d="M611.9,167.44c.63,17.32,1.19,34.64,1.9,51.95.3,7.44.91,14.87,1.39,22.31l.59-.13,5.37-146.45c-4,2.43-7.53,4.43-10.88,6.62-.53.35-.71,1.59-.68,2.4q.74,21.94,1.56,43.89C611.39,154.5,611.67,161,611.9,167.44Z"/><path class="cls-1" d="M763.9,374.9c.45,11.83.78,23.66,1.22,35.49q1.21,32.88,2.53,65.77c.29,7,.89,14,1.34,21h.53c2.24-43.3,4.48-86.6,6.75-130.54-3.84,1.73-6.92,3.26-10.11,4.51C764.25,371.91,763.83,373.07,763.9,374.9Z"/><path class="cls-1" d="M740.58,384.27c.45,9.52.79,19,1.2,28.56q.9,21.19,1.84,42.4c.45,10.38.85,20.77,1.31,31.15.19,4.21.49,8.41.74,12.62h.45c2.07-40.62,4.14-81.24,6.24-122.47-3.69,1.7-6.66,3.2-9.74,4.44A2.85,2.85,0,0,0,740.58,384.27Z"/><path class="cls-2" d="M560.35,672.12c-7.94-2.75-11.44-5.12-11.44-9.94,0-3.52,3-7.72,10.84-7.72a25.11,25.11,0,0,1,10.93,2.44l2.05-5.42C570.17,650.17,565.9,649,560,649c-11.19,0-18.62,6-18.62,14,0,7.26,5.81,11.62,15.2,14.61,7.77,2.67,10.85,5.43,10.85,10.24,0,5.2-4.44,8.8-12,8.8a28.71,28.71,0,0,1-13.32-3.36l-1.88,5.58c3.07,1.83,9.14,3.29,14.69,3.29,13.57,0,20.15-6.89,20.15-14.84C575,679.7,570.08,675.49,560.35,672.12Z"/><polygon class="cls-2" points="641.8 671.36 613.96 671.36 613.96 649.79 606.53 649.79 606.53 701.34 613.96 701.34 613.96 677.17 641.8 677.17 641.8 701.34 649.32 701.34 649.32 649.79 641.8 649.79 641.8 671.36"/><path class="cls-2" d="M698.74,649.79l-19.55,51.55h7.68l6-16.21h20.41l6.15,16.21h7.94l-19.64-51.55Zm-4.35,30.14L700,665c1.11-3.14,2.05-6.27,2.9-9.33h.18c.85,3,1.7,6,3,9.41l5.63,14.84Z"/><path class="cls-2" d="M781.72,676.79v-.23c6.07-1.83,10.85-6.35,10.85-13.15a12.22,12.22,0,0,0-4.52-9.79c-3.59-2.91-8.72-4.21-16.66-4.21a86,86,0,0,0-14.26,1.07v50.86h7.43V679h7c6.75.23,9.82,2.9,11.53,10,1.62,6.42,2.9,10.86,3.84,12.31h7.69c-1.2-2-2.56-7-4.44-14.15C788.81,681.84,786.17,678.17,781.72,676.79ZM772.16,674h-7.6V655.15a33.64,33.64,0,0,1,7.35-.62c7.85.08,13.23,3,13.23,9.64C785.14,670.06,780.1,674,772.16,674Z"/><polygon class="cls-2" points="831.84 677.17 854.21 677.17 854.21 671.66 831.84 671.66 831.84 655.38 855.49 655.38 855.49 649.79 824.41 649.79 824.41 701.34 856.77 701.34 856.77 695.76 831.84 695.76 831.84 677.17"/><path class="cls-2" d="M905,672.12c-7.94-2.75-11.44-5.12-11.44-9.94,0-3.52,3-7.72,10.84-7.72a25.11,25.11,0,0,1,10.93,2.44l2.06-5.42c-2.57-1.31-6.84-2.53-12.73-2.53-11.19,0-18.61,6-18.61,14,0,7.26,5.8,11.62,15.2,14.61,7.77,2.67,10.84,5.43,10.84,10.24,0,5.2-4.44,8.8-12,8.8a28.71,28.71,0,0,1-13.32-3.36l-1.88,5.58c3.08,1.83,9.14,3.29,14.69,3.29,13.58,0,20.15-6.89,20.15-14.84C919.69,679.7,914.74,675.49,905,672.12Z"/><path class="cls-3" d="M1724.73,102l-209.11,1-19.44.11c-13.44,1.76-25.45,7.13-31.79,16.41a31.35,31.35,0,0,0-4.71,11.37v36.92H1690.6l19.56-21.35,19.19-21-2.6-2.37-13.43-12.23L1709,107l-.08-.07.73-.13Z"/><path class="cls-4" d="M1525.63,443.43a.24.24,0,0,1-.06.08c-.42,0-.85-.06-1.27-.08Z"/><path class="cls-5" d="M1584.33,472.12v18.49H1474.87a25.29,25.29,0,0,1-15.92-7.47,28.84,28.84,0,0,1-8-10.22,38.29,38.29,0,0,1,5.5-12.09,41.22,41.22,0,0,1,31.79-17.4h69.13v28.69Z"/><rect class="cls-4" x="1648.71" y="443.43" width="6.36" height="14.66"/><rect class="cls-4" x="1622.07" y="472.12" width="6.99" height="18.49"/><polygon class="cls-6" points="1655.07 257.73 1655.07 458.1 1629.06 458.1 1629.06 506.72 1598.05 506.72 1598.05 458.1 1571.46 458.1 1571.46 257.73 1598.05 257.73 1598.05 214.33 1629.06 214.33 1629.06 257.73 1655.07 257.73"/><path class="cls-7" d="M1774.09,396.63v62.09a27.58,27.58,0,0,1-4.37,14c-6.52,9.82-20.46,15.67-35.78,17.52H1713V396.63Z"/><path class="cls-8" d="M1520.11,103.11c-2.09,1.82-14.19,12.72-14.88,30.91-.77,20.1,13,32.6,14.88,34.21v39.53h-60.43V130.89a31.66,31.66,0,0,1,4.68-11.37c6.31-9.28,18.25-14.65,31.61-16.41Z"/><polygon class="cls-9" points="1810.77 95.12 1809.86 102.35 1803.15 155.06 1801.02 171.83 1800.9 172.76 1800.53 172.42 1785.43 158.61 1669.05 286.44 1669.05 242.72 1644.55 242.72 1750.36 126.49 1732.41 110.05 1802.9 96.62 1810.77 95.12"/><path class="cls-10" d="M1557.42,331.88v73.2L1544,419.87q-11.1,11.79-22.21,23.56a38.3,38.3,0,0,0-10.17,25.88,37.61,37.61,0,0,0,7.06,21.3h-43.76a25.29,25.29,0,0,1-15.92-7.47,28.84,28.84,0,0,1-8-10.22,26.13,26.13,0,0,1-2-6.35c-2.52-14.37,8.1-24.66,9-25.49l39.11-43Z"/><path class="cls-11" d="M1774.09,443.43v15.65a27.59,27.59,0,0,1-4.37,14c-6.52,9.82-20.46,15.66-35.78,17.52h-91.53V472.12h26.64V443.43h44a47.47,47.47,0,0,0,31.4,11.41,46,46,0,0,0,9.29-1.14A47.59,47.59,0,0,0,1774.09,443.43Z"/><text class="cls-12" transform="translate(1309.04 649.53)">Trade</text><text class="cls-13" transform="translate(1629.12 650.9)">Zanga</text></svg>