<svg xmlns="http://www.w3.org/2000/svg" viewBox="0 0 261.55 307.49"><defs><style>.cls-1,.cls-2{fill:#fff;}.cls-2{stroke:#fff;stroke-miterlimit:10;stroke-width:0.5px;}</style></defs><g id="Layer_2" data-name="Layer 2"><g id="Layer_1-2" data-name="Layer 1"><path class="cls-1" d="M119.72,239.66a37.36,37.36,0,0,1,.87,5.28c.1,6.07.07,12.15,0,18.22,0,2.73.64,5.61-1.49,8h7.82a12.76,12.76,0,0,1-1.11-3.48c-.11-6.53,0-13.06,0-19.8a4.62,4.62,0,0,1,.53.34l22.86,22c.42.4.92,1,1.4,1,2.05.11,4.1,0,6.14,0,0-8.41,0-16.64,0-24.87,0-2.3,0-4.56,1.61-6.61h-7.63a22.69,22.69,0,0,1,1,4.5c.12,5.79,0,11.59,0,17.39a11.17,11.17,0,0,1-.13,1.15c-.65-.59-1.13-1-1.59-1.46-6.57-6.44-13.19-12.83-19.65-19.38-1.69-1.71-3.35-2.61-5.75-2.35A44.71,44.71,0,0,1,119.72,239.66Z"/><path class="cls-1" d="M25.79,247.87c.43.34.64.48.82.66l10,9.7q6.15,6,12.31,11.89c.48.46,1.08,1.06,1.66,1.1,2,.13,4.11,0,6.24,0v-1.09c0-8.1,0-16.19,0-24.29,0-2.16,0-4.29,1.58-6.09H50.6A18.87,18.87,0,0,1,51.71,244c.12,6.07.06,12.15.06,18.22a6.08,6.08,0,0,1-.09.68c-.36-.34-.59-.54-.8-.75Q40,251.5,29.11,240.83a3.47,3.47,0,0,0-2-1.09c-2.56-.13-5.13-.05-8-.05,1.72,1.92,1.68,4,1.69,6.05,0,6,0,12.06,0,18.09,0,2.52.34,5.15-1.65,7.32h7.64a23.81,23.81,0,0,1-.95-4.44c-.11-5.8-.05-11.59-.05-17.39Z"/><path class="cls-1" d="M253.18,266.59c-4.83,0-9.67,0-14.5,0h-1.53v-9h17.76v-4.79H237.12v-8.49c3.47,0,6.87-.07,10.26,0,4.52.12,9.16-.45,13.3,2v-6.59h-32.9a6.9,6.9,0,0,1,1.84,5.24c0,5.8,0,11.6,0,17.4-.05,3,.82,6.17-1.56,8.88h33.53v-6.61C258.94,266.43,256.09,266.61,253.18,266.59Z"/><path class="cls-1" d="M66.69,245.08c0,5.85,0,11.69,0,17.53,0,2.92.63,6-1.54,8.58H75.68a10.7,10.7,0,0,1-1.19-3c-.14-3.51,0-7,0-10.56H91.7v-4.85H74.45v-8.37c4.3,0,8.47-.05,12.65,0,3.19.06,6.41.14,9.29,2.1v-6.71H65A7.53,7.53,0,0,1,66.69,245.08Z"/><path class="cls-1" d="M182.74,246.48c5.09-2.94,10.55-2.08,16-2.26,0,.74.09,1.37.1,2,0,5.19.07,10.39,0,15.58,0,3.18.81,6.53-1.7,9.39h10.24a21.29,21.29,0,0,1-1-4.4c-.11-7.21-.06-14.43,0-21.65a5.59,5.59,0,0,1,.19-1c5.3.22,10.63-.57,15.53,2.22v-6.69H182.74Z"/><path class="cls-1" d="M.74,234.67a38.7,38.7,0,0,1,.74,5.23c.07,8.5,0,17,0,25.52,0,2,.15,4-1.52,5.73H10a21.29,21.29,0,0,1-1-4.44c-.1-7.64-.09-15.27,0-22.9,0-3.11-.66-6.35,1.54-9.14Z"/><path class="cls-1" d="M112.24,271.24c-1.53-1.71-1.61-3.59-1.61-5.48V245.19c0-1.89.14-3.74,1.65-5.39H101.83c1.73,2.15,1.59,4.46,1.58,6.76,0,5.52,0,11,0,16.56,0,2.73.64,5.6-1.46,8.12Z"/><path class="cls-1" d="M176.18,271.21c-1.52-1.66-1.56-3.56-1.55-5.5,0-5.84,0-11.67,0-17.51,0-2.83-.59-5.77,1.48-8.45H166c1.82,2.4,1.62,5,1.62,7.64,0,5.83,0,11.67,0,17.5,0,2.2.11,4.4-1.67,6.32Z"/><path class="cls-1" d="M66.26,104.25a1.49,1.49,0,0,0-.58-1.18c-1.73-.92-3.52-1.72-5.56-2.69,0,1.58,0,2.85,0,4.12.15,5.93.33,11.86.47,17.79.21,9,.39,18,.6,27q.14,6.13.31,12.27l1,36.82q.18,6.08.34,12.14h.47c0-2.71-.06-5.42,0-8.13q.38-15.72.82-31.44c.34-11.63.73-23.25,1.1-34.88C65.6,125.48,66,114.87,66.26,104.25Z"/><path class="cls-1" d="M74.6,211.65c0-3-.08-6,0-8.92.25-8.23.58-16.45.86-24.68q.57-17,1.12-34,.41-12.48.8-24.95.15-4.77.16-9.52a1.81,1.81,0,0,0-.59-1.38c-1.63-.88-3.35-1.61-5.3-2.52.79,35.57,1.57,70.79,2.35,106Z"/><path class="cls-1" d="M83.24,132.74q.41,14.41.8,28.81.46,17.92.87,35.85c.12,4.92.26,9.85.38,14.77a29,29,0,0,0,.36-3.7q.6-18.48,1.16-36.95.45-14.67.88-29.36c.11-3.63.29-7.26.4-10.89q.24-8.55.41-17.1a1.41,1.41,0,0,0-.6-1.06c-1.63-.81-3.3-1.53-5.19-2.39,0,1,0,1.8,0,2.58Q83,123,83.24,132.74Z"/><path class="cls-1" d="M146.37,144.52c.21-6.29.45-12.59.64-18.89.22-7.54.37-15.08.61-22.62.32-9.79.71-19.57,1-29.36q.38-11.24.63-22.47a1.65,1.65,0,0,0-.52-1.26c-1.68-1-3.42-1.89-5.39-3,.88,32.71,1.75,65.15,2.62,97.58Z"/><path class="cls-1" d="M133.44,76.08q.45,14.9.83,29.79.47,18.82.91,37.66c0,.53,0,1.05,0,1.58l.4,0c0-.5.06-1,.08-1.49.16-6.16.34-12.32.46-18.48.17-8.74.28-17.48.43-26.22.08-4.42.19-8.83.3-13.25q.54-20.68,1.06-41.38a1.55,1.55,0,0,0-.61-1.17c-1.51-1-3.08-1.8-4.88-2.83,0,1.36,0,2.46,0,3.55C132.76,54.57,133.12,65.33,133.44,76.08Z"/><path class="cls-1" d="M99.34,118.08c-1.57-.82-3.19-1.55-5.16-2.48.82,32.42,1.63,64.51,2.45,96.6a5.17,5.17,0,0,0,.38-1.84c.13-5.24.22-10.48.34-15.72.08-3.45.17-6.9.31-10.34.32-8.22.71-16.44,1-24.66.18-4.92.2-9.84.34-14.76.1-3.58.31-7.16.42-10.75.15-5,.25-10,.34-15A1.28,1.28,0,0,0,99.34,118.08Z"/><path class="cls-1" d="M108,213.49c.11-2.34.26-4.67.34-7q.59-16.62,1.13-33.23c.23-7.22.4-14.44.61-21.66.1-3.36.25-6.71.35-10.07q.25-8.82.44-17.65a1.32,1.32,0,0,0-.44-1c-1.61-.83-3.28-1.56-5.21-2.46.9,31.2,1.8,62.13,2.69,93.06Z"/><path class="cls-1" d="M157.13,141.24c.11-1.93.25-3.85.32-5.78q.45-12.12.87-24.25c.29-8.78.54-17.55.81-26.33s.57-17.73.83-26.6c0-.38,0-1-.28-1.11-1.74-1.11-3.54-2.14-5.52-3.32.92,29.36,1.82,58.39,2.73,87.42Z"/><path class="cls-1" d="M191.45,178.52c.22,7.33.39,14.66.64,22,.13,3.75.4,7.5.6,11.25l.44,0c1-25.71,2-51.41,3-77.34-1.25.51-2.18.86-3.08,1.26-2.86,1.27-2.85,1.28-2.75,4.31Q190.88,159.27,191.45,178.52Z"/><path class="cls-1" d="M119.09,212.31q.42-11.91.84-23.83.45-13.57.88-27.15c.12-3.5.25-7,.36-10.48.24-7.35.48-14.7.68-22a1.56,1.56,0,0,0-.6-1.22c-1.53-.81-3.12-1.49-4.83-2.28.78,29.35,1.54,58.5,2.31,87.66A.72.72,0,0,0,119.09,212.31Z"/><path class="cls-1" d="M179.11,143c.2,5.42.33,10.85.53,16.27.33,9.14.73,18.29,1.06,27.43.24,6.44.39,12.88.61,19.32.06,1.75.25,3.5.38,5.25h.42c1-24.13,2-48.26,3.07-72.56-1.76.83-3.28,1.66-4.88,2.26C179.2,141.38,179.07,142,179.11,143Z"/><path class="cls-1" d="M167.92,139.16c.39-7.79.84-15.58,1.16-23.38.28-6.84.42-13.69.64-20.54.12-3.81.3-7.62.43-11.43q.32-9.44.59-18.88c0-.41-.09-1-.37-1.21-1.58-1.06-3.24-2-5.22-3.21.82,26.47,1.62,52.57,2.42,78.66Z"/><path class="cls-1" d="M168.26,147.83q.59,15.72,1.12,31.45c.22,6.49.39,13,.6,19.46.08,2.58.17,5.15.29,7.73.1,1.94.25,3.89.37,5.83H171c1-22.84,2.07-45.67,3.13-68.79a48.9,48.9,0,0,1-4.59,2.2C168.39,146.13,168.22,146.8,168.26,147.83Z"/><path class="cls-1" d="M157.3,152.07c.38,8.92.71,17.85,1,26.78.3,8.26.56,16.52.9,24.79.12,3,.4,5.93.61,8.89h.25c1-21.46,2-42.92,3.05-64.59-1.68.75-3.08,1.5-4.57,2C157.44,150.37,157.25,151,157.3,152.07Z"/><path class="cls-1" d="M178.93,135c.22-3.43.5-6.86.64-10.3.33-8,.59-16,.88-24,.11-3,.24-6,.34-9q.38-10.14.72-20.26c0-.38-.06-1-.31-1.11-1.54-1-3.15-1.93-5-3.06.83,22.79,1.66,45.2,2.48,67.61Z"/><path class="cls-1" d="M109.11,66c.24,8,.39,15.94.62,23.91.19,6.66.42,13.32.63,20h.38c.87-34.28,1.74-68.57,2.61-103.16-2,1.13-3.71,2.08-5.38,3.14a1.76,1.76,0,0,0-.53,1.32q.28,11.88.64,23.76C108.4,45.25,108.79,55.6,109.11,66Z"/><path class="cls-1" d="M120.18,66.19c.15,9.87.27,19.74.44,29.61.11,7,.3,13.91.46,20.87,0,.56,0,1.12.07,1.68l.41,0c0-.59,0-1.19,0-1.78q.45-21.27.91-42.52.38-16.83.82-33.64c.32-12.14.69-24.28,1-36.43,0-1.23,0-2.46,0-4-1.81,1.16-3.38,2.12-4.88,3.19a1.85,1.85,0,0,0-.61,1.32q.49,23.37,1.06,46.73Q120.06,58.71,120.18,66.19Z"/><path class="cls-1" d="M97.06,17.07c-.24.16-.3.77-.29,1.17q.41,14,.83,28c.28,9.24.52,18.48.81,27.72q.41,12.78.88,25.55c.07,2,.21,4,.31,6.08l.25,0c.9-30.57,1.81-61.15,2.72-92.07C100.59,14.81,98.8,15.9,97.06,17.07Z"/><path class="cls-1" d="M87,55c.23,6.84.36,13.69.64,20.53.33,7.8.77,15.59,1.16,23.39h.36c.8-26.09,1.6-52.18,2.41-78.65-2,1.2-3.63,2.15-5.22,3.2A1.69,1.69,0,0,0,86,24.66q.27,9.43.6,18.87C86.71,47.34,86.89,51.16,87,55Z"/><path class="cls-1" d="M76.29,60.44c.29,8,.54,16,.87,24,.14,3.44.42,6.87.64,10.3l.28-.06c.82-22.41,1.64-44.81,2.48-67.6-1.87,1.12-3.48,2-5,3.06-.24.16-.32.73-.31,1.1q.33,10.14.72,20.26C76.05,54.47,76.18,57.46,76.29,60.44Z"/><path class="cls-1" d="M146.45,156.2c.21,5.46.36,10.92.56,16.38.38,10.12.75,20.24,1.17,30.36.13,3.24.41,6.47.62,9.71H149c1-20,2.07-40,3.12-60.26-1.78.81-3.2,1.51-4.67,2.09A1.48,1.48,0,0,0,146.45,156.2Z"/><path class="cls-1" d="M135.69,160.53c.2,4.39.36,8.79.55,13.18q.42,9.79.85,19.57c.2,4.8.39,9.59.6,14.38.09,1.94.23,3.88.35,5.83h.2c1-18.75,1.91-37.5,2.88-56.53-1.7.79-3.07,1.48-4.5,2A1.31,1.31,0,0,0,135.69,160.53Z"/><path class="cls-2" d="M52.49,293.4c-3.66-1.27-5.28-2.36-5.28-4.59,0-1.62,1.38-3.57,5-3.57a11.6,11.6,0,0,1,5,1.13l1-2.5a13.28,13.28,0,0,0-5.88-1.17c-5.16,0-8.59,2.76-8.59,6.46,0,3.36,2.68,5.37,7,6.75,3.58,1.23,5,2.5,5,4.73,0,2.4-2,4.06-5.55,4.06a13.27,13.27,0,0,1-6.15-1.55l-.87,2.57A15,15,0,0,0,50,307.24c6.27,0,9.3-3.18,9.3-6.85C59.27,296.9,57,295,52.49,293.4Z"/><polygon class="cls-2" points="90.09 293.05 77.24 293.05 77.24 283.09 73.81 283.09 73.81 306.89 77.24 306.89 77.24 295.73 90.09 295.73 90.09 306.89 93.56 306.89 93.56 283.09 90.09 283.09 90.09 293.05"/><path class="cls-2" d="M116.37,283.09l-9,23.8h3.54l2.76-7.49h9.42l2.84,7.49h3.67l-9.07-23.8Zm-2,13.91,2.6-6.88c.52-1.45,1-2.9,1.34-4.31h.08c.4,1.38.79,2.79,1.38,4.34l2.6,6.85Z"/><path class="cls-2" d="M154.68,295.55v-.1c2.8-.85,5-2.93,5-6.07a5.64,5.64,0,0,0-2.09-4.52c-1.65-1.34-4-1.94-7.68-1.94a39.46,39.46,0,0,0-6.58.49v23.48h3.42V296.58H150c3.11.1,4.53,1.34,5.32,4.62a28.82,28.82,0,0,0,1.77,5.69h3.55a35.54,35.54,0,0,1-2-6.53C158,297.88,156.73,296.19,154.68,295.55Zm-4.42-1.3h-3.51v-8.69a15.93,15.93,0,0,1,3.39-.28c3.63,0,6.11,1.38,6.11,4.45C156.25,292.45,153.93,294.25,150.26,294.25Z"/><polygon class="cls-2" points="177.81 295.73 188.13 295.73 188.13 293.19 177.81 293.19 177.81 285.67 188.73 285.67 188.73 283.09 174.38 283.09 174.38 306.89 189.32 306.89 189.32 304.31 177.81 304.31 177.81 295.73"/><path class="cls-2" d="M211.58,293.4c-3.66-1.27-5.28-2.36-5.28-4.59,0-1.62,1.38-3.57,5-3.57a11.62,11.62,0,0,1,5,1.13l1-2.5a13.28,13.28,0,0,0-5.88-1.17c-5.16,0-8.59,2.76-8.59,6.46,0,3.36,2.68,5.37,7,6.75,3.58,1.23,5,2.5,5,4.73,0,2.4-2,4.06-5.56,4.06a13.26,13.26,0,0,1-6.14-1.55l-.87,2.57a15,15,0,0,0,6.78,1.52c6.27,0,9.3-3.18,9.3-6.85C218.36,296.9,216.07,295,211.58,293.4Z"/></g></g></svg>